<svg xmlns="http://www.w3.org/2000/svg" xmlns:xlink="http://www.w3.org/1999/xlink" viewBox="0 0 97.94 28.17"><defs><style>.cls-1{fill:none;}.cls-2{clip-path:url(#clip-path);}.cls-3{fill:url(#radial-gradient);}.cls-4{fill:#fff;}.cls-5{fill:#004987;}.cls-6{fill:#00754a;}</style><clipPath id="clip-path"><path class="cls-1" d="M19.19,14.1a6.89,6.89,0,1,1-6.88-6.89,6.89,6.89,0,0,1,6.88,6.89"/></clipPath><radialGradient id="radial-gradient" cx="-2303.54" cy="1110.95" r="0.43" gradientTransform="matrix(15.15, 0, 0, -15.18, 34912.86, 16874.44)" gradientUnits="userSpaceOnUse"><stop offset="0" stop-color="#fff"/><stop offset="0.29" stop-color="#f1f1f2"/><stop offset="0.45" stop-color="#e1e1e2"/><stop offset="0.76" stop-color="#b6b8ba"/><stop offset="1" stop-color="#929497"/></radialGradient></defs><title>Asset 2</title><g id="Layer_2" data-name="Layer 2"><g id="Layer_1-2" data-name="Layer 1"><g class="cls-2"><rect class="cls-3" x="5.42" y="7.21" width="13.77" height="13.79"/></g><path class="cls-4" d="M18.94,14.29c.07.12.15.24.22.37h0c-.07-.14-.15-.27-.23-.4a3.85,3.85,0,0,0,.17-1.12h0a4,4,0,0,1-.16,1.09,8.74,8.74,0,0,0-1-1.32,4.18,4.18,0,0,0,.13-1.07A3.74,3.74,0,0,0,18,11a3.39,3.39,0,0,1,.73.58l0,0A3.65,3.65,0,0,0,18,11a4.88,4.88,0,0,0-.73-1.73l0,0A5.1,5.1,0,0,1,18,11a4,4,0,0,0-1.5-.51,3.57,3.57,0,0,0-.56-1.24,4.09,4.09,0,0,1,1.31,0v0a4,4,0,0,0-1.34,0,4.14,4.14,0,0,0-1-1A4.91,4.91,0,0,1,15.47,8v0a4,4,0,0,0-.64.28,4.68,4.68,0,0,0-1.46-.63,2.48,2.48,0,0,1,.19-.26l0,0a2.75,2.75,0,0,0-.19.28,4.7,4.7,0,0,0-1.08-.13h0a4,4,0,0,0-.7.06,2.1,2.1,0,0,0-.13-.26h0l.12.25A4.68,4.68,0,0,0,10,8a3.67,3.67,0,0,0-.48-.26v0A4,4,0,0,1,10,8,4.11,4.11,0,0,0,8.77,9a5.07,5.07,0,0,0-1-.11v0a4.81,4.81,0,0,1,1,.12,3.39,3.39,0,0,0-.64,1.18,5.11,5.11,0,0,0-1.42.39,4.71,4.71,0,0,1,.36-1L7,9.69a5.66,5.66,0,0,0-.34,1,4.55,4.55,0,0,0-.49.25l0,0a5.06,5.06,0,0,1,.46-.24,5.42,5.42,0,0,0-.15,1.15,4.14,4.14,0,0,0,.09.87,5.52,5.52,0,0,0-1,1.11,3.57,3.57,0,0,1-.09-.8h0a4.58,4.58,0,0,0,.08.83l-.18.29,0,0,.17-.27a4.71,4.71,0,0,0,.76,1.7,7.66,7.66,0,0,0-.38,1,3.52,3.52,0,0,1-.38-.9h0a4,4,0,0,0,.4.93s0,.08,0,.12H6l0-.1a5.79,5.79,0,0,0,1.59,1.7c0,.24,0,.47-.06.71h0c0-.24,0-.47,0-.7a8.49,8.49,0,0,0,1.72,1c0,.34,0,.68,0,1.05h0c0-.36,0-.71,0-1a8.18,8.18,0,0,0,1.89.54c0,.35,0,.69,0,1.05h0c0-.35,0-.69,0-1a7.43,7.43,0,0,0,1.15.09c.22,0,.43,0,.65,0,0,.35,0,.69,0,1h0c0-.35,0-.69,0-1a8.25,8.25,0,0,0,1.79-.37c0,.33,0,.66-.07,1h0c0-.35.05-.69.07-1a7.68,7.68,0,0,0,1.71-.81c0,.23,0,.46,0,.7h0q0-.37,0-.72A6.18,6.18,0,0,0,18.3,17.2a2.26,2.26,0,0,1,0,.26h0c0-.1,0-.2,0-.29A4.65,4.65,0,0,0,19,15.91h0a4.53,4.53,0,0,1-.62,1.22A4.11,4.11,0,0,0,18,16,4.82,4.82,0,0,0,18.94,14.29Zm0,0A4.88,4.88,0,0,1,18,16a7.21,7.21,0,0,0-.85-1.47,4.64,4.64,0,0,0,.77-1.54A7.83,7.83,0,0,1,18.92,14.26Zm-7.56-3.38a.69.69,0,0,0,.05.24,10.72,10.72,0,0,0-1.58.78,2.23,2.23,0,0,1-.19-.67C10.19,11.09,10.77,11,11.36,10.88Zm0,0h0a.86.86,0,0,1,0-.23h0v0h0a1.1,1.1,0,0,1,.14-.21h0a.91.91,0,0,1,.52-.25h.3a.81.81,0,0,1,.49.3h0l0,0h0a.71.71,0,0,1,.13.4v.06h0v0h0a.73.73,0,0,1-.23.41h0l0,0h0a.9.9,0,0,1-.58.22h-.11v0h0v0a1,1,0,0,1-.48-.22h0l0,0h0a.78.78,0,0,1-.16-.24h0v0h0a.85.85,0,0,1,0-.23h0Zm.36.69c-.3.51-.58,1-.83,1.47a2.52,2.52,0,0,1-.62-.45,12,12,0,0,1,1.29-1.15.92.92,0,0,0,.49.22c-.13.55-.25,1.1-.35,1.65A2.62,2.62,0,0,1,11,13c.25-.47.53-.95.84-1.47Zm1.7,1.52a2.74,2.74,0,0,1-.8.24c-.08-.56-.18-1.11-.29-1.66h0c.11.55.2,1.1.28,1.65a2.43,2.43,0,0,1-.38,0,3.58,3.58,0,0,1-.48,0c.1-.55.22-1.1.35-1.65h.11a.89.89,0,0,0,.6-.22,14.48,14.48,0,0,1,1.28,1.21,2.42,2.42,0,0,1-.62.42c-.26-.5-.54-1-.85-1.5l0,0C12.92,12.07,13.21,12.56,13.46,13.06Zm-1.73.25c-.1.56-.19,1.11-.26,1.67a4.34,4.34,0,0,1-1.25-.39,16.12,16.12,0,0,1,.72-1.54A2.93,2.93,0,0,0,11.73,13.31Zm0,0a3.89,3.89,0,0,0,.49,0,2.34,2.34,0,0,0,.38,0c.08.56.15,1.12.2,1.68l-.56,0h0A4.52,4.52,0,0,1,11.5,15C11.57,14.43,11.66,13.87,11.76,13.32Zm.9,0a3,3,0,0,0,.81-.24,14.49,14.49,0,0,1,.69,1.56,4.83,4.83,0,0,1-1.3.36C12.81,14.45,12.74,13.89,12.66,13.33Zm.84-.25a3,3,0,0,0,.63-.43A10.18,10.18,0,0,1,15.19,14a3.9,3.9,0,0,1-1,.63A13.25,13.25,0,0,0,13.5,13.08Zm.65-.45a2.5,2.5,0,0,0,.46-.57A10,10,0,0,1,16,13.14a3.75,3.75,0,0,1-.67.78l-.07.06A10.18,10.18,0,0,0,14.15,12.63Zm0,0a15.92,15.92,0,0,0-1.27-1.21.7.7,0,0,0,.15-.19,9,9,0,0,1,1.57.83A2.06,2.06,0,0,1,14.13,12.61ZM13,11.18a.83.83,0,0,0,.06-.21,9.3,9.3,0,0,1,1.77.22,2.05,2.05,0,0,1-.25.83A8.87,8.87,0,0,0,13,11.18Zm-1.6,0a.69.69,0,0,0,.16.23,13.39,13.39,0,0,0-1.3,1.16,2.26,2.26,0,0,1-.44-.62A11,11,0,0,1,11.42,11.15Zm-1.15,1.41A10.48,10.48,0,0,0,9.18,13.9a4.07,4.07,0,0,1-.76-1,9.76,9.76,0,0,1,1.4-1A2.1,2.1,0,0,0,10.27,12.56Zm0,0a2.69,2.69,0,0,0,.63.46,16.42,16.42,0,0,0-.73,1.54,4.5,4.5,0,0,1-1-.66A10.48,10.48,0,0,1,10.29,12.58Zm-.11,2a12.15,12.15,0,0,0-.52,1.58,5.92,5.92,0,0,1-1.29-.76,9.29,9.29,0,0,1,.82-1.48A4,4,0,0,0,10.18,14.6Zm0,0a4.31,4.31,0,0,0,1.26.39c-.07.54-.12,1.09-.16,1.64a6.58,6.58,0,0,1-1.62-.46A10.31,10.31,0,0,1,10.21,14.62Zm1.29.4a6,6,0,0,0,.74.06h0l.57,0c.05.54.09,1.09.12,1.64a5.07,5.07,0,0,1-.68,0,7.3,7.3,0,0,1-.94-.07C11.38,16.1,11.43,15.56,11.5,15Zm1.36,0a4.46,4.46,0,0,0,1.31-.36,12.09,12.09,0,0,1,.46,1.62,6.24,6.24,0,0,1-1.64.39C13,16.13,12.92,15.58,12.86,15Zm1.33-.37a4.49,4.49,0,0,0,1-.64,9.7,9.7,0,0,1,.8,1.54,6.22,6.22,0,0,1-1.35.72A12.12,12.12,0,0,0,14.19,14.66Zm1-.66.07-.06a3.75,3.75,0,0,0,.67-.78,10,10,0,0,1,1.16,1.31A5.58,5.58,0,0,1,16,15.54,8.29,8.29,0,0,0,15.23,14Zm.76-.86a3.44,3.44,0,0,0,.51-1.33,5.44,5.44,0,0,1,1.4,1.1,4.12,4.12,0,0,1-.76,1.54A9.23,9.23,0,0,0,16,13.14Zm0,0A9.54,9.54,0,0,0,14.62,12a2.27,2.27,0,0,0,.26-.85,6.62,6.62,0,0,1,1.6.6A3.6,3.6,0,0,1,16,13.12Zm-1.09-1.95a.92.92,0,0,0,0-.16,2,2,0,0,0-.08-.55,7.19,7.19,0,0,1,1.62,0,3.08,3.08,0,0,1,.09.75,3,3,0,0,1,0,.52A5.75,5.75,0,0,0,14.88,11.17Zm0-.16a.76.76,0,0,1,0,.15,10.19,10.19,0,0,0-1.76-.22v-.06a.49.49,0,0,0,0-.12,12,12,0,0,1,1.7-.3A2,2,0,0,1,14.86,11Zm-1.79-.28a.76.76,0,0,0-.11-.26,8,8,0,0,1,1.41-.8,2.17,2.17,0,0,1,.41.76A11.86,11.86,0,0,0,13.07,10.73Zm-.13-.29a1,1,0,0,0-.18-.17,8.34,8.34,0,0,1,1-1.17,2.82,2.82,0,0,1,.64.55A8,8,0,0,0,12.94,10.44Zm-.21-.18a.81.81,0,0,0-.3-.13,8,8,0,0,1,.37-1.38,2.74,2.74,0,0,1,.89.34A7.33,7.33,0,0,0,12.73,10.26Zm-.33-.13a.52.52,0,0,0-.17,0h-.1a11.64,11.64,0,0,0-.22-1.39l.34,0a3,3,0,0,1,.52.05A8.67,8.67,0,0,0,12.4,10.13Zm-.29,0a1,1,0,0,0-.3.08l-.1-.16A9.8,9.8,0,0,0,11,9a2.81,2.81,0,0,1,.88-.26A14,14,0,0,1,12.11,10.12Zm-.42-.07.1.17a.72.72,0,0,0-.2.14,11.8,11.8,0,0,0-1.38-.8A2.62,2.62,0,0,1,11,9C11.25,9.34,11.47,9.7,11.69,10.05Zm-.12.33a.8.8,0,0,0-.15.21l-.34-.07c-.41-.09-.85-.18-1.31-.24a2.37,2.37,0,0,1,.42-.7A13.41,13.41,0,0,1,11.57,10.38Zm-.5.17.34.07a.86.86,0,0,0-.05.23c-.59.1-1.17.21-1.72.35,0-.06,0-.12,0-.19a2.17,2.17,0,0,1,.13-.71C10.22,10.37,10.66,10.46,11.07,10.55ZM9.6,11c0,.07,0,.13,0,.2a9.43,9.43,0,0,0-1.6.55c0-.15,0-.31,0-.47a3.51,3.51,0,0,1,.16-1,6.55,6.55,0,0,1,1.6,0A2.08,2.08,0,0,0,9.6,11Zm0,.22a2.23,2.23,0,0,0,.2.68,11.6,11.6,0,0,0-1.4,1A3.23,3.23,0,0,1,8,11.79,10,10,0,0,1,9.61,11.23ZM8.39,12.94a8.59,8.59,0,0,0-1.17,1.23,4.36,4.36,0,0,1-.61-1.46A5.74,5.74,0,0,1,8,11.81,3.47,3.47,0,0,0,8.39,12.94Zm0,0a3.87,3.87,0,0,0,.77.95,9.74,9.74,0,0,0-.82,1.48,5.08,5.08,0,0,1-1.11-1.21A8.45,8.45,0,0,1,8.4,13Zm-.06,2.46A9.35,9.35,0,0,0,7.81,17a6.38,6.38,0,0,1-1.42-1.42,7.58,7.58,0,0,1,.83-1.36A5.34,5.34,0,0,0,8.34,15.43Zm0,0a6.35,6.35,0,0,0,1.29.76,12.23,12.23,0,0,0-.28,1.66A7.67,7.67,0,0,1,7.83,17,10,10,0,0,1,8.36,15.45Zm1.32.77a6.66,6.66,0,0,0,1.63.46c0,.56-.07,1.12-.08,1.7a7.5,7.5,0,0,1-1.83-.5A10.85,10.85,0,0,1,9.68,16.22Zm1.66.46a7.3,7.3,0,0,0,.94.07c.23,0,.46,0,.68,0,0,.57.06,1.15.07,1.72q-.33,0-.69,0a7.85,7.85,0,0,1-1.08-.08C11.27,17.81,11.3,17.24,11.34,16.68Zm1.65,0a6.41,6.41,0,0,0,1.65-.39,13.14,13.14,0,0,1,.23,1.73,8.19,8.19,0,0,1-1.81.38C13.05,17.85,13,17.28,13,16.71Zm1.67-.4A5.92,5.92,0,0,0,16,15.58a9.61,9.61,0,0,1,.47,1.7A7.28,7.28,0,0,1,14.9,18,11.63,11.63,0,0,0,14.66,16.31ZM16,15.57a5.09,5.09,0,0,0,1.1-1.07A7.27,7.27,0,0,1,18,16a6.81,6.81,0,0,1-1.47,1.29A8.44,8.44,0,0,0,16,15.57ZM18,11a4,4,0,0,1,.09.82,4.09,4.09,0,0,1-.14,1.05,5.8,5.8,0,0,0-1.4-1.1,4.9,4.9,0,0,0,0-.54,3,3,0,0,0-.09-.74A4.43,4.43,0,0,1,18,11Zm-1.54-.55a7.12,7.12,0,0,0-1.61,0,2.29,2.29,0,0,0-.41-.77,6,6,0,0,1,1.45-.42A3.49,3.49,0,0,1,16.42,10.46Zm-.59-1.25a6.74,6.74,0,0,0-1.45.43,2.31,2.31,0,0,0-.64-.56,5,5,0,0,1,1.08-.83A4,4,0,0,1,15.83,9.21Zm-1-1a4.9,4.9,0,0,0-1.09.84,3,3,0,0,0-.9-.35,5.94,5.94,0,0,1,.53-1.11A4.53,4.53,0,0,1,14.8,8.23Zm-2.58-.75h0a4.53,4.53,0,0,1,1.06.12,6,6,0,0,0-.53,1.12,3.07,3.07,0,0,0-.53-.05l-.35,0a6,6,0,0,0-.37-1.15A4,4,0,0,1,12.22,7.48Zm-.72.06a6.43,6.43,0,0,1,.37,1.15A2.88,2.88,0,0,0,11,9,4.06,4.06,0,0,0,10,8,4.85,4.85,0,0,1,11.5,7.54ZM10,8.06A4.21,4.21,0,0,1,11,9a2.48,2.48,0,0,0-.77.58A6.45,6.45,0,0,0,8.8,9,4.08,4.08,0,0,1,10,8.06Zm-1.21,1a6.45,6.45,0,0,1,1.39.51,2.21,2.21,0,0,0-.43.7,6.55,6.55,0,0,0-1.6,0A3.48,3.48,0,0,1,8.78,9.06ZM6.52,11.83a5,5,0,0,1,.16-1.16,4.82,4.82,0,0,1,1.42-.4,3.19,3.19,0,0,0-.15,1,2.7,2.7,0,0,0,0,.49,5.37,5.37,0,0,0-1.38.9A4,4,0,0,1,6.52,11.83Zm-.9,2a6,6,0,0,1,1-1.12,4.36,4.36,0,0,0,.61,1.46,8,8,0,0,0-.83,1.36A4.87,4.87,0,0,1,5.62,13.85ZM6,16.6a8,8,0,0,1,.38-1A6,6,0,0,0,7.8,17a10.52,10.52,0,0,0-.22,1.27A6,6,0,0,1,6,16.6Zm1.61,1.72a10.52,10.52,0,0,1,.22-1.27,7.16,7.16,0,0,0,1.54.85,12.46,12.46,0,0,0,0,1.39A8.15,8.15,0,0,1,7.61,18.32Zm1.74,1a12.55,12.55,0,0,1,.05-1.39,7.38,7.38,0,0,0,1.83.5c0,.47,0,.95,0,1.43A8.18,8.18,0,0,1,9.35,19.3Zm3.07.64a7.43,7.43,0,0,1-1.15-.09c0-.49,0-1,0-1.44a7.85,7.85,0,0,0,1.08.08c.24,0,.47,0,.7,0l0,1.45C12.85,19.93,12.64,19.94,12.42,19.94Zm.68,0c0-.49,0-1,0-1.45a8.19,8.19,0,0,0,1.81-.38,14.06,14.06,0,0,1,0,1.46A7.7,7.7,0,0,1,13.1,19.91Zm1.82-.38c0-.51,0-1,0-1.46a7.35,7.35,0,0,0,1.6-.76,10.24,10.24,0,0,1,.13,1.4A7.29,7.29,0,0,1,14.92,19.53Zm3.38-2.37a6.21,6.21,0,0,1-1.64,1.54,8.73,8.73,0,0,0-.14-1.4A6.87,6.87,0,0,0,18,16,4.08,4.08,0,0,1,18.3,17.16Z"/><path class="cls-5" d="M11.77,21a7,7,0,0,1-6.34-7,7.79,7.79,0,0,1,1.29-4c1.45-2.47,9.36-6.8,17.47-10-1.89.38-5.56,1.51-7.55,2.13a58.15,58.15,0,0,0-9.2,3.73c-.38.22-.73.36-1.53.84-4,2.4-6.46,5.74-5.8,8.49.5,2.1,2.75,3.89,5.9,4.88a21.93,21.93,0,0,0,5.3.93c.16,0,.26,0,.43,0Z"/><path class="cls-6" d="M12.83,7.22a7,7,0,0,1,6.36,7,7.81,7.81,0,0,1-1.24,4c-1.45,2.48-9.41,6.8-17.52,10C2.32,27.79,6,26.66,8,26a56.19,56.19,0,0,0,9.19-3.73c.38-.21.73-.36,1.54-.83,4-2.4,6.46-5.74,5.8-8.49-.51-2.1-2.76-3.89-5.9-4.89a21.32,21.32,0,0,0-5.26-.9,4.56,4.56,0,0,0-.52,0Z"/><path class="cls-6" d="M53.13,8.64l.12-.26h.21a.62.62,0,0,1-.07-.31.49.49,0,0,1,.5-.55.6.6,0,0,1,.45.21l0,0L54.19,8l0,0a.44.44,0,0,0-.27-.15c-.14,0-.23.1-.23.29s.07.31.23.31h.51l-.13.26Z"/><polygon class="cls-6" points="27.97 18.1 27.97 14.82 29.84 14.82 29.84 15.27 28.46 15.27 28.46 16.23 29.8 16.23 29.8 16.67 28.46 16.67 28.46 17.66 29.89 17.66 29.89 18.1 27.97 18.1 27.97 18.1"/><path class="cls-6" d="M30.87,15.9h0a1,1,0,0,1,.76-.38c.47,0,.86.32.86,1v1.55H32V16.53c0-.37-.19-.61-.5-.61a.84.84,0,0,0-.63.36v1.81h-.5V15.57h.5v.33Z"/><polygon class="cls-6" points="32.77 15.57 33.32 15.57 34 17.12 34.66 15.57 35.19 15.57 34.08 18.14 33.91 18.14 32.77 15.57 32.77 15.57"/><path class="cls-6" d="M36.08,18.09h-.5V15.57h.5v2.52Zm-.25-3a.3.3,0,0,1,0-.59.3.3,0,1,1,0,.59Z"/><path class="cls-6" d="M37.33,15.57v.58h0c.26-.45.5-.63.73-.63a.83.83,0,0,1,.6.29l-.26.43A.85.85,0,0,0,38,16a.7.7,0,0,0-.62.77v1.32h-.5V15.57Z"/><path class="cls-6" d="M39.24,16.81a.84.84,0,1,0,1.68,0,.82.82,0,0,0-.86-.84.8.8,0,0,0-.82.84Zm2.19,0a1.35,1.35,0,1,1-1.37-1.29,1.29,1.29,0,0,1,1.37,1.29Z"/><path class="cls-6" d="M42.47,15.9h0a1,1,0,0,1,.75-.38c.47,0,.86.32.86,1v1.55h-.5V16.53c0-.37-.19-.61-.5-.61a.84.84,0,0,0-.63.36v1.81H42V15.57h.5v.33Z"/><path class="cls-6" d="M45.27,15.57v.33a1.07,1.07,0,0,1,.74-.38.84.84,0,0,1,.75.45,1.14,1.14,0,0,1,.84-.45c.51,0,.84.39.84,1v1.58h-.5V16.53a.53.53,0,0,0-.52-.59.86.86,0,0,0-.57.32v1.83h-.5V16.52c0-.41-.2-.58-.45-.58a.76.76,0,0,0-.63.32v1.83h-.5V15.57Z"/><path class="cls-6" d="M50.78,16.57a.58.58,0,0,0-.59-.62.66.66,0,0,0-.68.62Zm.45,1.27a1.59,1.59,0,0,1-1,.3A1.24,1.24,0,0,1,49,16.8a1.17,1.17,0,0,1,1.18-1.28c.67,0,1.09.45,1.09,1.39H49.5a.79.79,0,0,0,.85.75,1.61,1.61,0,0,0,.88-.3v.48Z"/><path class="cls-6" d="M52.3,15.9h0a1,1,0,0,1,.76-.38c.47,0,.86.32.86,1v1.55h-.5V16.53c0-.37-.19-.61-.5-.61a.84.84,0,0,0-.63.36v1.81h-.5V15.57h.5v.33Z"/><path class="cls-6" d="M55.21,15.57H56V16h-.79v1.29a.34.34,0,0,0,.36.38,1.08,1.08,0,0,0,.56-.18V18a1.4,1.4,0,0,1-.6.17.74.74,0,0,1-.82-.79V16h-.44V16l.94-.91v.52Z"/><path class="cls-6" d="M59.76,16.7l-.5-1.14-.47,1.14Zm.65,1.4-.45-1H58.59l-.4,1h-.51l1.41-3.29h.34l1.47,3.3Z"/><path class="cls-6" d="M62.06,16a.48.48,0,0,0-.5.46.5.5,0,0,0,1,0,.48.48,0,0,0-.49-.44Zm-.13,2.21c-.34,0-.57.16-.57.39s.24.38.7.38.7-.13.7-.36-.52-.41-.83-.41ZM63.25,16h-.52a.68.68,0,0,1,.27.55.93.93,0,0,1-.24.57c-.33.35-1,.17-1,.47,0,.14.26.23.77.33s.73.38.73.7c0,.5-.44.8-1.19.8s-1.16-.32-1.16-.76.19-.59.63-.7c-.17-.1-.25-.21-.25-.32s.15-.3.4-.36h0a.88.88,0,0,1-.42-.32.79.79,0,0,1-.14-.47c0-.54.42-.87,1.1-.87h1V16Z"/><path class="cls-6" d="M65.3,16.57a.58.58,0,0,0-.6-.62.65.65,0,0,0-.67.62Zm.44,1.27a1.58,1.58,0,0,1-1,.3,1.24,1.24,0,0,1-1.22-1.34,1.17,1.17,0,0,1,1.17-1.28c.67,0,1.1.45,1.1,1.39H64a.79.79,0,0,0,.85.75,1.61,1.61,0,0,0,.88-.3v.48Z"/><path class="cls-6" d="M66.82,15.9h0a1,1,0,0,1,.75-.38c.48,0,.86.32.86,1v1.55h-.5V16.53c0-.37-.19-.61-.49-.61a.82.82,0,0,0-.63.36v1.81h-.5V15.57h.5v.33Z"/><path class="cls-6" d="M71,16.23a1.19,1.19,0,0,0-.7-.25.77.77,0,0,0-.77.85.79.79,0,0,0,.86.84,1.7,1.7,0,0,0,.67-.17V18a2.29,2.29,0,0,1-.76.14A1.22,1.22,0,0,1,69,16.88a1.22,1.22,0,0,1,1.25-1.36,1.74,1.74,0,0,1,.73.17v.54Z"/><polygon class="cls-6" points="71.92 19.38 71.36 19.38 72.22 17.55 71.24 15.57 71.81 15.57 72.49 16.99 73.14 15.57 73.7 15.57 71.92 19.38 71.92 19.38"/><path class="cls-6" d="M78.22,16.93h.85l-.44-1-.41,1ZM80,18.09h-.4l-.37-.8H78.07l-.34.8h-.41l1.18-2.75h.27L80,18.09Z"/><path class="cls-6" d="M80.69,17.74h.49c.46,0,.59-.23.59-.43s-.19-.43-.61-.43h-.47v.86Zm0-1.21H81c.39,0,.58-.15.58-.44s-.12-.38-.48-.38h-.36v.82Zm-.39-1.17h.79c.59,0,.84.35.84.7a.58.58,0,0,1-.41.58h0a.71.71,0,0,1,.65.71c0,.34-.25.73-.93.73H80.3V15.36Z"/><path class="cls-6" d="M84.85,17a1.06,1.06,0,0,1-1.21,1.11,1,1,0,0,1-1.14-1.07v-1.7h.39V17c0,.31,0,.44.16.56a.81.81,0,0,0,.59.24.9.9,0,0,0,.64-.22.82.82,0,0,0,.18-.6V15.36h.39V17Z"/><path class="cls-6" d="M86.9,17.74h.63a1,1,0,0,0,1.09-1,1,1,0,0,0-1.11-1H86.9v2Zm-.39-2.38h1.06A1.35,1.35,0,0,1,89,16.72a1.37,1.37,0,0,1-1.45,1.37H86.51V15.36Z"/><polygon class="cls-6" points="91.83 18.09 91.43 18.09 91.43 16.9 89.9 16.9 89.9 18.09 89.51 18.09 89.51 15.36 89.9 15.36 89.9 16.55 91.43 16.55 91.43 15.36 91.83 15.36 91.83 18.09 91.83 18.09"/><path class="cls-6" d="M93,16.93h.85l-.44-1-.41,1Zm1.77,1.16h-.4l-.36-.8H92.87l-.34.8h-.4l1.17-2.75h.28l1.22,2.75Z"/><path class="cls-6" d="M95.5,17.74H96c.46,0,.58-.23.58-.43s-.19-.43-.6-.43H95.5v.86Zm0-1.21h.26c.38,0,.57-.15.57-.44s-.11-.38-.47-.38H95.5v.82Zm-.4-1.17h.8c.58,0,.84.35.84.7a.58.58,0,0,1-.42.58h0a.71.71,0,0,1,.66.71c0,.34-.25.73-.94.73H95.1V15.36Z"/><polygon class="cls-6" points="97.75 18.09 97.36 18.09 97.36 15.36 97.75 15.36 97.75 18.09 97.75 18.09"/><path class="cls-6" d="M45.2,12.47c.59,0,.88-.35.88-1.07s-.29-1.08-.85-1.08-1.69.92-2.1,2.15Zm-5.08.34a2,2,0,0,1-1-.28.88.88,0,0,1-.71.28h-6c-.43,0-.83-.08-1-.69l-.2-.89c-.15-.68-.29-.85-.69-.85h-.18l.55,2.27-.05,0a7.91,7.91,0,0,1-1.45.14A1.19,1.19,0,0,1,28,11.45V10.11h.37V11.4c0,.75.3,1.07,1,1.07a6.61,6.61,0,0,0,1-.09c-.41-1.69-.46-1.82-.48-1.89a.84.84,0,0,1,0-.13l-.08-.31h.49a1,1,0,0,1,1.16.94l.24,1a.52.52,0,0,0,.6.43h6c.48,0,.69-.27.69-.9V10.11h.36v1.57a1.74,1.74,0,0,1-.1.56,1.65,1.65,0,0,0,.83.23h2.72V9h.36v2.5A2.83,2.83,0,0,1,45.23,10c.78,0,1.24.53,1.24,1.42a1.5,1.5,0,0,1-.36,1.1,1,1,0,0,1-.2.15,1.2,1.2,0,0,1-.62.16Z"/><path class="cls-6" d="M48.25,10.81a.76.76,0,0,0-.76.84c0,.52.27.82.73.82h.47V10.89h0a1.18,1.18,0,0,0-.39-.07Zm-.66,3.28-.15-.33h.23a.88.88,0,0,0,1-.95h-.49a1,1,0,0,1-1-1.15,1.06,1.06,0,0,1,1.1-1.17,2.92,2.92,0,0,1,.77.11h0v1.86h2.76c.49,0,.69-.26.69-.9V10.11h.37v1.57c0,.74-.34,1.12-1,1.13H49.05a1.18,1.18,0,0,1-1.35,1.28Z"/><polygon class="cls-6" points="53.66 12.81 53.66 9.01 54.02 9.01 54.02 12.81 53.66 12.81 53.66 12.81"/><path class="cls-6" d="M84.3,9.49l.11-.22h.23l0,0a.71.71,0,0,1-.06-.31A.47.47,0,0,1,85,8.41a.56.56,0,0,1,.44.22l-.14.16a.55.55,0,0,0-.3-.17c-.15,0-.25.12-.25.31s.08.34.25.34h.48l-.11.22Z"/><path class="cls-6" d="M65.92,9.49,66,9.27h.22l0,0a.71.71,0,0,1-.06-.31.47.47,0,0,1,.48-.52.54.54,0,0,1,.44.22L67,8.79a.55.55,0,0,0-.3-.17c-.15,0-.25.12-.25.31s.09.34.25.34h.48L67,9.49Z"/><polygon class="cls-6" points="29.62 13.95 29.62 13.37 29.91 13.37 29.91 13.95 29.62 13.95 29.62 13.95"/><polygon class="cls-6" points="51.74 13.93 51.74 13.37 52.03 13.37 52.03 13.93 51.74 13.93 51.74 13.93"/><polygon class="cls-6" points="38.22 13.93 38.22 13.37 38.51 13.37 38.51 13.93 38.22 13.93 38.22 13.93"/><polygon class="cls-6" points="29.12 13.95 29.12 13.37 29.41 13.37 29.41 13.95 29.12 13.95 29.12 13.95"/><polygon class="cls-6" points="45.43 9.59 45.43 9 45.72 9 45.72 9.59 45.43 9.59 45.43 9.59"/><polygon class="cls-6" points="59.73 9.62 59.73 9.02 60.02 9.02 60.02 9.62 59.73 9.62 59.73 9.62"/><polygon class="cls-6" points="60.28 9.62 60.28 9.02 60.57 9.02 60.57 9.62 60.28 9.62 60.28 9.62"/><polygon class="cls-6" points="80.68 9.62 80.68 9.02 80.97 9.02 80.97 9.62 80.68 9.62 80.68 9.62"/><polygon class="cls-6" points="81.23 9.62 81.23 9.02 81.52 9.02 81.52 9.62 81.23 9.62 81.23 9.62"/><path class="cls-6" d="M59.72,10.47c-.39,0-.51.17-.51.75s.19.7.48.7a1.91,1.91,0,0,0,.47-.07V10.51a1.6,1.6,0,0,0-.44,0Zm13.33,2.35a2,2,0,0,1-1-.27.94.94,0,0,1-.7.26h-1a2,2,0,0,1-1-.27.94.94,0,0,1-.7.26h-1a2.09,2.09,0,0,1-1-.27.91.91,0,0,1-.7.26H60.16v-.48a2,2,0,0,1-.48.06c-.68,0-1-.34-1-1.18S59,10,59.72,10a2.83,2.83,0,0,1,.86.13h.06v2.24h5.18c.45,0,.63-.24.63-.84V10.13h.47v1.49a1.57,1.57,0,0,1-.08.54,1.57,1.57,0,0,0,.76.2h.93c.45,0,.63-.24.63-.84V10.13h.48v1.49a1.57,1.57,0,0,1-.09.54,1.6,1.6,0,0,0,.76.2h.94c.44,0,.63-.24.63-.84V10.13h.47v1.49a1.57,1.57,0,0,1-.09.54,1.6,1.6,0,0,0,.76.2h2c.46,0,.64-.23.64-.84V9h.47v2.59c0,.76-.33,1.16-1,1.19h-2.1Z"/><polygon class="cls-6" points="76.83 12.82 76.83 9.03 77.3 9.03 77.3 12.82 76.83 12.82 76.83 12.82"/><path class="cls-6" d="M80.68,10.47c-.44,0-.65.24-.65.75s.29.7.61.7a2,2,0,0,0,.48-.07V10.51a1.64,1.64,0,0,0-.44,0Zm15.63,1.89v-.22c0-.41-.1-.58-.35-.58s-.37.21-.37.58v.22Zm-6.49.46a2,2,0,0,1-1-.27,1,1,0,0,1-.71.26H86a2,2,0,0,1-1-.27,1,1,0,0,1-.71.26H81.12v-.48a2,2,0,0,1-.48.06c-.73,0-1.1-.4-1.1-1.18A1.08,1.08,0,0,1,80.68,10a2.83,2.83,0,0,1,.86.13h0v2.24h2.63c.45,0,.63-.24.63-.84V10.13h.48v1.49a1.57,1.57,0,0,1-.09.54,1.57,1.57,0,0,0,.76.2h2c.45,0,.63-.24.63-.84V10.13h.48v1.49a1.57,1.57,0,0,1-.09.54,1.57,1.57,0,0,0,.76.2h5.34v-.22c0-.91.52-1,.83-1s.82.13.82,1v.22h.68v-.72a1.19,1.19,0,0,0-1.15-1.29,1.7,1.7,0,0,0-.77.15l-.08,0-.11-.44.06,0a2.53,2.53,0,0,1,.91-.17,1.57,1.57,0,0,1,1.62,1.7v1.22Z"/><polygon class="cls-6" points="87.85 13.99 87.85 13.4 88.14 13.4 88.14 13.99 87.85 13.99 87.85 13.99"/><polygon class="cls-6" points="88.4 13.99 88.4 13.4 88.69 13.4 88.69 13.99 88.4 13.99 88.4 13.99"/><polygon class="cls-6" points="68.14 13.99 68.14 13.4 68.43 13.4 68.43 13.99 68.14 13.99 68.14 13.99"/><polygon class="cls-6" points="68.69 13.99 68.69 13.4 68.98 13.4 68.98 13.99 68.69 13.99 68.69 13.99"/><polygon class="cls-6" points="71.17 13.99 71.17 13.4 71.47 13.4 71.47 13.99 71.17 13.99 71.17 13.99"/><path class="cls-6" d="M76.32,16.89H74.84v-.35h1.48Z"/><path class="cls-6" d="M57.2,11.59H55.71v-.35H57.2Z"/></g></g></svg>