<svg xmlns="http://www.w3.org/2000/svg" viewBox="0 0 17.38 17.38"><defs><style>.cls-1{fill:none;stroke:#00a650;stroke-linecap:round;stroke-linejoin:round;stroke-width:0.72px;}</style></defs><title>Asset 13</title><g id="Layer_2" data-name="Layer 2"><g id="Layer_1-2" data-name="Layer 1"><path class="cls-1" d="M2.9,12.67h0a1.08,1.08,0,0,1-1.09-1.08V7.24A1.08,1.08,0,0,1,2.9,6.16h0A1.08,1.08,0,0,1,4,7.24v4.35A1.08,1.08,0,0,1,2.9,12.67Z"/><path class="cls-1" d="M1.81,11.19a1.81,1.81,0,0,1,0-3.55"/><path class="cls-1" d="M14.48,6.16h0a1.08,1.08,0,0,1,1.09,1.08v4.35a1.08,1.08,0,0,1-1.09,1.08h0a1.08,1.08,0,0,1-1.08-1.08V7.24A1.08,1.08,0,0,1,14.48,6.16Z"/><path class="cls-1" d="M15.57,7.64a1.81,1.81,0,0,1,0,3.55"/><path class="cls-1" d="M9.05,17H6.88a.73.73,0,0,1-.72-.73h0a.72.72,0,0,1,.72-.72H9.05a.73.73,0,0,1,.73.72h0A.73.73,0,0,1,9.05,17Z"/><path class="cls-1" d="M14.84,12.67c0,2.9-1.44,3.62-5.06,3.62"/><path class="cls-1" d="M3.26,6.16V5.79A5.43,5.43,0,0,1,8.69.36h0a5.43,5.43,0,0,1,5.43,5.43v.37"/></g></g></svg>