<svg xmlns="http://www.w3.org/2000/svg" viewBox="0 0 25.08 24.32"><defs><style>.cls-1{fill:#107ae3;}</style></defs><title>mic</title><g id="Layer_2" data-name="Layer 2"><g id="Layer_1-2" data-name="Layer 1"><path class="cls-1" d="M24.48,13c2-16.69-24-17.64-23.22-.86C-.94,13,0,16.6,2.35,16.27a11.68,11.68,0,0,0,7.1,6.24c0,2.4,3.73,2.41,3.69,0a1.86,1.86,0,0,0-3.32-1.11,10.49,10.49,0,0,1-6.39-5.58,2.18,2.18,0,0,0,.76-1.13h.22c-.2,1.13.35,2.17,1.63,1.91.15,2.4,3.92,2.25,3.88-.16V11.8C10,9.36,6.17,9.22,6,11.65c-1.27-.26-1.83.77-1.63,1.89H4.19A2.16,2.16,0,0,0,2.42,12a9.76,9.76,0,0,1,.15-2.42c2.81,1,3-7.13,10.33-6.71,7.42-.4,7.46,7.74,10.36,6.71a10.64,10.64,0,0,1,.08,3.24,1.4,1.4,0,0,0-.88.75H21.39c.2-1.13-.35-2.15-1.62-1.89-.14-2.43-3.94-2.29-3.9.15v4.65c0,2.41,3.74,2.57,3.9.16,1.28.26,1.82-.78,1.62-1.91h1.08C23.48,16.75,26.3,14.34,24.48,13ZM11.3,21.83a.69.69,0,0,1,0,1.37A.69.69,0,0,1,11.3,21.83Zm-5.73-9H6v2.64H5.57ZM8,11c1.23-.53,1.2,6.73,0,6.21a.77.77,0,0,1-.78-.77C7.46,15.74,6.47,10.87,8,11Zm12.26,4.44h-.46V12.81h.46Zm-2.4,1.77a.78.78,0,0,1-.8-.77c.27-.72-.72-5.58.8-5.44C19.05,10.48,19,17.74,17.83,17.22ZM3.11,14.12a1,1,0,0,1-2,0A1,1,0,0,1,3.11,14.12ZM12.9,1.68A10.06,10.06,0,0,0,3.42,8.42c-.12.3-.38.07-.56-.08C5.44-1.39,20.38-1.4,23,8.33c-.19.16-.46.38-.59.09A10.06,10.06,0,0,0,12.9,1.68Z"/></g></g></svg>