<svg xmlns="http://www.w3.org/2000/svg" viewBox="0 0 12.34 14.11"><defs><style>.cls-1{fill:none;stroke:#00a650;stroke-linecap:round;stroke-linejoin:round;stroke-width:0.59px;}</style></defs><title>Asset 12</title><g id="Layer_2" data-name="Layer 2"><g id="Layer_1-2" data-name="Layer 1"><path class="cls-1" d="M7.35,1.47A7.74,7.74,0,0,1,6.17,3.82,7.77,7.77,0,0,1,5,1.47a1.18,1.18,0,1,1,2.35,0Z"/><path class="cls-1" d="M3.23,3.23A7.74,7.74,0,0,1,5.58,4.41,7.77,7.77,0,0,1,3.23,5.58a1.18,1.18,0,0,1,0-2.35Z"/><path class="cls-1" d="M5,7.35A7.77,7.77,0,0,1,6.17,5,7.74,7.74,0,0,1,7.35,7.35,1.18,1.18,0,0,1,5,7.35Z"/><path class="cls-1" d="M9.11,5.58A7.77,7.77,0,0,1,6.76,4.41,7.74,7.74,0,0,1,9.11,3.23a1.18,1.18,0,1,1,0,2.35Z"/><path class="cls-1" d="M6.17,13.81C7.35,9.7,8.52,7.93,12.05,7.93,9.7,11.46,9.7,13.81,6.17,13.81Z"/><path class="cls-1" d="M6.17,13.81C5,9.7,3.82,7.93.29,7.93,2.64,11.46,2.64,13.81,6.17,13.81Z"/></g></g></svg>