<svg xmlns="http://www.w3.org/2000/svg" viewBox="0 0 22.95 22.76"><defs><style>.cls-1{fill:#107ae3;}.cls-2{fill:none;stroke:#107ae3;stroke-linecap:round;stroke-linejoin:round;}</style></defs><title>Asset 6</title><g id="Layer_2" data-name="Layer 2"><g id="Layer_1-2" data-name="Layer 1"><path class="cls-1" d="M19.13,2.81C3.61,3.43,2-1.25,2.8,16.86L1.07,18.39C1.18,2.57-1.56.25,16.37,1.16c3.52,1.4,2.88-.95,0-1.07C11.22.36-.14-1.89,0,6.35V19.6c.35,1.64,2.29-1,2.8-1.3-.18,6,0,5.32,4,1.6a1.32,1.32,0,0,1,1.39-.52c3.24-.69,14.87,2.34,14.64-3.68-.58-3.18,2.07-13.09-3.7-12.89ZM21.75,15.7a2.62,2.62,0,0,1-2.62,2.62c-.47,0-10.83,0-11.3,0-1.41-.2-2.91,2.12-4,2.82V6.48a2.61,2.61,0,0,1,2.62-2.6C21.45,4.84,22.29-.73,21.75,15.7Z"/><g id="around"><path class="cls-2" d="M14.9,13.3c-1.14,2.48-5.11,1.54-5.1-1.38-.15-3.09,4-4.23,5.1-2.31"/><path class="cls-2" d="M15.37,8.69c-2.32,8.28,4.18,8,2.37.93-4.56-8.83-15.9,2.4-7,7"/></g></g></g></svg>