<svg xmlns="http://www.w3.org/2000/svg" viewBox="0 0 54.44 15.92"><defs><style>.cls-1{fill:#fff;}</style></defs><title>Asset 4</title><g id="Layer_2" data-name="Layer 2"><g id="Layer_1-2" data-name="Layer 1"><path class="cls-1" d="M44.81,3.74c0-.32.19-.54.16-.84,0,0-.21-.14-.21-.16,0-.34.09-.57,0-.86,0,0-.21-.14-.22-.17A7.68,7.68,0,0,0,43.9,0,3.07,3.07,0,0,1,43,1.09h0l-.23,0h0c-.22.18-.26.45-.5.64h0l-.23,0h0c-.26.19-.32.49-.58.71h0l-.22,0h0c-.21.18-.22.46-.41.67h0l-.23,0h0c-.22.24-.22.58-.39.85h0l-.21,0h0c-.17.28-.11.67-.2,1h0l-.17,0s0,0,0,0a2.4,2.4,0,0,0,0,1.21,3.27,3.27,0,0,0,.67,1.43c2-.39,3-3.94,3-3.94a5.8,5.8,0,0,1-2,4.58,1.58,1.58,0,0,0,.38,0,3.93,3.93,0,0,0,2.17-.85s-.17-.11-.16-.13c.2-.2.58-.34.74-.6,0,0-.16-.15-.15-.18a3.74,3.74,0,0,0,.53-.64s-.17-.15-.16-.17c.09-.28.36-.46.41-.72,0,0-.18-.15-.18-.18.05-.29.28-.49.29-.76C45,3.88,44.81,3.77,44.81,3.74Z"/><path class="cls-1" d="M51.5,11.93a3.89,3.89,0,0,0,1.63-1.37,3.58,3.58,0,0,0,.61-2.05A3.84,3.84,0,0,0,53.45,7a3.56,3.56,0,0,0-.82-1.2A4,4,0,0,0,51.34,5a4.68,4.68,0,0,0-1.67-.29H45.79a.76.76,0,0,1,0,.3,1.88,1.88,0,0,1-.24.57.91.91,0,0,1,0,.46,1.88,1.88,0,0,1-.33.52A1,1,0,0,1,45,7a1.89,1.89,0,0,1-.49.52.88.88,0,0,1-.29.44v7.94H47.2V12.3h1.62l2.37,3.62h3.25Zm-.73-2.79a2.05,2.05,0,0,1-.3.59,1.93,1.93,0,0,1-.47.43,1.17,1.17,0,0,1-.61.17H47.2V6.73h2.07a1.26,1.26,0,0,1,.62.17,1.81,1.81,0,0,1,.51.41,1.87,1.87,0,0,1,.35.57,1.58,1.58,0,0,1,.13.63A2,2,0,0,1,50.77,9.14Z"/><path class="cls-1" d="M25.47,4.72l-4.35,11.2H24l.71-2.07,3.81,0,.74,2.09H32.2L27.86,4.72Zm-.31,7.35,1.49-4.66,1.45,4.66Z"/><path class="cls-1" d="M9.41,13A3,3,0,0,0,9.23,12a2.38,2.38,0,0,0-.49-.81A3,3,0,0,0,8,10.57a6.26,6.26,0,0,0-1-.4,3.14,3.14,0,0,0,1.36-1,2.51,2.51,0,0,0,.51-1.58,2.83,2.83,0,0,0-.19-1,2.9,2.9,0,0,0-.54-.93A2.7,2.7,0,0,0,7.31,5a2.21,2.21,0,0,0-1.06-.25H0v11.2H5.63a4.73,4.73,0,0,0,1.56-.24A3.75,3.75,0,0,0,8.38,15a2.74,2.74,0,0,0,.76-.91A2.34,2.34,0,0,0,9.41,13ZM2.73,6.93H5.35a.94.94,0,0,1,.76.33,1.2,1.2,0,0,1,.29.81,1.28,1.28,0,0,1-.29.81,1,1,0,0,1-.81.36H2.73Zm4,6a1.11,1.11,0,0,1-.24.39,1.46,1.46,0,0,1-.38.27,1.13,1.13,0,0,1-.48.11H2.73V11.28H5.68a1,1,0,0,1,.81.36,1.17,1.17,0,0,1,.33.84A1.27,1.27,0,0,1,6.73,13Z"/><path class="cls-1" d="M13.49,4.72,9.14,15.92h2.92l.7-2.07,3.82,0,.73,2.09h2.92L15.89,4.72Zm-.31,7.35,1.5-4.66,1.45,4.66Z"/><path class="cls-1" d="M41.52,9A3.1,3.1,0,0,1,41,9a.9.9,0,0,1-.71-.66h0a.55.55,0,0,1-.18,0,.82.82,0,0,1-.4-.1A4.4,4.4,0,0,1,40,9a3.67,3.67,0,0,1,.23,1.32,4,4,0,0,1-.82,2.39,3,3,0,0,1-.89.79,2.06,2.06,0,0,1-1.07.3H35.84V6.86h1.62a2.16,2.16,0,0,1,1,.27,3.46,3.46,0,0,1,.46.32,4.41,4.41,0,0,1-.46-1.23,3.35,3.35,0,0,1-.07-1.42,6.24,6.24,0,0,0-1-.08H33v11.2h4.49a5.85,5.85,0,0,0,2.22-.42,5.57,5.57,0,0,0,1.83-1.15,5.53,5.53,0,0,0,1.7-4A5.82,5.82,0,0,0,43,8.71,3.79,3.79,0,0,1,41.52,9Z"/></g></g></svg>