<svg xmlns="http://www.w3.org/2000/svg" viewBox="0 0 21.5 21.5"><defs><style>.cls-1{fill:#00a650;}.cls-2{fill:none;stroke:#00a650;stroke-linecap:round;stroke-linejoin:round;stroke-width:0.52px;}</style></defs><title>instagram</title><g id="Layer_2" data-name="Layer 2"><g id="Layer_1-2" data-name="Layer 1"><path class="cls-1" d="M10.75,8.12a2.64,2.64,0,1,0,2.64,2.63A2.63,2.63,0,0,0,10.75,8.12Zm0,4.35a1.72,1.72,0,1,1,1.72-1.72,1.72,1.72,0,0,1-1.72,1.72ZM14.11,8a.62.62,0,0,1-1.23,0,.61.61,0,0,1,.62-.61A.61.61,0,0,1,14.11,8Zm1.75.62A3.06,3.06,0,0,0,15,6.48a3.08,3.08,0,0,0-2.16-.83c-.85-.05-3.39-.05-4.24,0a3.06,3.06,0,0,0-2.15.83,3.06,3.06,0,0,0-.83,2.15c-.05.85-.05,3.39,0,4.24A3.06,3.06,0,0,0,6.48,15a3.06,3.06,0,0,0,2.15.83c.85.05,3.39.05,4.24,0A3,3,0,0,0,15,15a3.1,3.1,0,0,0,.83-2.15c0-.85,0-3.39,0-4.24Zm-1.1,5.15a1.75,1.75,0,0,1-1,1,11.24,11.24,0,0,1-3,.2,11.72,11.72,0,0,1-3-.2,1.76,1.76,0,0,1-1-1,11.26,11.26,0,0,1-.21-3,11.26,11.26,0,0,1,.21-3,1.71,1.71,0,0,1,1-1,11.29,11.29,0,0,1,3-.21,11.24,11.24,0,0,1,3,.21,1.73,1.73,0,0,1,1,1,11.26,11.26,0,0,1,.21,3A11.24,11.24,0,0,1,14.76,13.78Z"/><circle class="cls-2" cx="10.75" cy="10.75" r="10.49"/></g></g></svg>