<svg xmlns="http://www.w3.org/2000/svg" xmlns:xlink="http://www.w3.org/1999/xlink" viewBox="0 0 277.92 70.15"><defs><style>.cls-1{fill:url(#linear-gradient);}.cls-2{fill:#e8e9ee;}.cls-3{fill:none;stroke:#8cc6ff;stroke-miterlimit:10;stroke-width:0.5px;}.cls-3,.cls-4{opacity:0.5;}.cls-5{fill:#8cc6ff;}.cls-6{font-size:12.83px;fill:#004987;font-family:Gotham-Medium, Gotham Medium;font-weight:500;}.cls-7{font-size:9.98px;font-family:Gotham-ExtraLight, Gotham ExtraLight;font-weight:200;}.cls-12,.cls-8{fill:#074e88;}.cls-11,.cls-12,.cls-9{font-size:11.68px;font-family:MyriadPro-Regular, Myriad Pro;}.cls-18,.cls-9{fill:#00bc69;}.cls-10{font-size:5.39px;}.cls-11,.cls-13{fill:#ee5b24;}.cls-14{fill:#035e6e;}.cls-15{fill:#00a650;}.cls-16{fill:#8dc965;}.cls-17{fill:#49702a;}.cls-19{fill:url(#linear-gradient-2);}.cls-20{fill:url(#radial-gradient);}.cls-21{fill:#fff;}</style><linearGradient id="linear-gradient" x1="1.67" y1="50.69" x2="258.52" y2="50.69" gradientUnits="userSpaceOnUse"><stop offset="0" stop-color="#f15a24"/><stop offset="0.36" stop-color="#074e88"/><stop offset="0.74" stop-color="#007944"/><stop offset="1" stop-color="#00bf6b"/></linearGradient><linearGradient id="linear-gradient-2" x1="48.42" y1="86.45" x2="120.19" y2="0.92" gradientUnits="userSpaceOnUse"><stop offset="0" stop-color="#107ae3"/><stop offset="1" stop-color="#004987"/></linearGradient><radialGradient id="radial-gradient" cx="166.94" cy="43.68" r="9.31" gradientUnits="userSpaceOnUse"><stop offset="0" stop-color="#8cc6ff"/><stop offset="1" stop-color="#8cc6ff" stop-opacity="0"/></radialGradient></defs><title>Asset 12 (2)</title><g id="Layer_2" data-name="Layer 2"><g id="Layer_1-2" data-name="Layer 1"><rect class="cls-1" x="1.67" y="49.67" width="256.85" height="2.04"/><polygon class="cls-2" points="174.39 47.22 254.2 47.22 248.98 40.27 174.39 40.27 174.39 47.22"/><line class="cls-3" x1="166.94" y1="38.03" x2="166.94" y2="17.44"/><g class="cls-4"><path class="cls-5" d="M200.3,6.1a11.52,11.52,0,0,1-4,8.82,11.55,11.55,0,0,1-4.44,2.29,18.6,18.6,0,0,1-5,.4l-19.92.08L147,17.61a18.6,18.6,0,0,1-5-.4,11.55,11.55,0,0,1-4.44-2.29,11.52,11.52,0,0,1-4-8.82,11.37,11.37,0,0,0,4.18,8.63,11.27,11.27,0,0,0,4.35,2.2,18.7,18.7,0,0,0,4.91.35l19.92-.09,19.92.09a18.7,18.7,0,0,0,4.91-.35,11.27,11.27,0,0,0,4.35-2.2A11.37,11.37,0,0,0,200.3,6.1Z"/></g><text class="cls-6" transform="translate(150.6 10.74)">150<tspan class="cls-7" x="19.75" y="0">pts</tspan></text><circle class="cls-8" cx="166.94" cy="43.68" r="9.54"/><circle class="cls-3" cx="166.94" cy="43.68" r="13.93"/><text class="cls-9" transform="translate(244.53 67.23)">200<tspan class="cls-10" x="17.97" y="0">pts</tspan></text><text class="cls-11" transform="translate(0 67.23)">0<tspan class="cls-10" x="5.99" y="0">pts</tspan></text><text class="cls-12" transform="translate(115.92 67.23)">100<tspan class="cls-10" x="17.97" y="0">pts</tspan></text><polygon class="cls-13" points="1.67 56.35 1.67 50.78 2.74 50.78 1.67 56.35"/><polygon class="cls-14" points="127.85 56.35 127.85 50.78 128.92 50.78 127.85 56.35"/><path class="cls-15" d="M257.1,44.6c.55-1.58,2.74-8.69-.22-14.06a15,15,0,0,1,1.22-2.76c4.65-8.11,16.6-10,16.6-10s4.4,11.26-.26,19.37c-2.91,5.08-8.69,7.72-12.6,9A27.37,27.37,0,0,1,264,35.21a29,29,0,0,1,7.73-10,29.75,29.75,0,0,0-10.66,10.38,27.75,27.75,0,0,0-3.4,11.16,33.41,33.41,0,0,1-1.54-6.83A23.19,23.19,0,0,1,257.1,44.6Z"/><path class="cls-16" d="M244.65,26s-3.29,8.44.2,14.52c2.18,3.81,6.51,5.79,9.45,6.73a20.37,20.37,0,0,0-1.64-8.19,21.55,21.55,0,0,0-5.79-7.51,22.3,22.3,0,0,1,8,7.78,20.86,20.86,0,0,1,2.55,8.37c.55-1.59,2.78-8.83-.31-14.21C253.61,27.43,244.65,26,244.65,26Z"/><path class="cls-17" d="M253.54,52.93c4.27,1.19,18.51.55,20.83-7.55C271.61,51.59,259.87,54,253.54,52.93Z"/><path class="cls-18" d="M258.71,49.67h-.43v2a20.38,20.38,0,0,0,19.64-16.35A20.18,20.18,0,0,1,258.71,49.67Z"/><rect class="cls-19" x="1.67" y="40.15" width="165.27" height="7.07"/><circle class="cls-20" cx="166.94" cy="43.68" r="9.31"/><circle class="cls-21" cx="166.94" cy="43.68" r="5.48"/></g></g></svg>