<svg xmlns="http://www.w3.org/2000/svg" viewBox="0 0 27.15 21.77"><defs><style>.cls-1{fill:#107ae3;}</style></defs><title>Asset 5</title><g id="Layer_2" data-name="Layer 2"><g id="Layer_1-2" data-name="Layer 1"><path class="cls-1" d="M9.23,12.7H8a.64.64,0,0,0-.4.18L4.37,16.13A.22.22,0,0,1,4,16V13.29a.65.65,0,0,0-.64-.59H1.75a.47.47,0,0,1-.47-.46V1.75a.47.47,0,0,1,.47-.47H19.52a.47.47,0,0,1,.47.47v4a.64.64,0,0,0,1.28,0v-4A1.75,1.75,0,0,0,19.52,0H1.75A1.75,1.75,0,0,0,0,1.75V12.24A1.74,1.74,0,0,0,1.75,14h.74a.22.22,0,0,1,.22.22v3.85a.64.64,0,0,0,.4.59.49.49,0,0,0,.24.05.6.6,0,0,0,.45-.19L8.32,14h.91a.64.64,0,0,0,.64-.64A.64.64,0,0,0,9.23,12.7Z"/><path class="cls-1" d="M25.4,7.83H13.09a1.76,1.76,0,0,0-1.75,1.75v7a1.76,1.76,0,0,0,1.75,1.75h7.67a.23.23,0,0,1,.16.06l3.17,3.17a.64.64,0,0,0,.45.19.74.74,0,0,0,.25-.05.65.65,0,0,0,.39-.59V18.57a.22.22,0,0,1,.22-.22h0a1.75,1.75,0,0,0,1.75-1.75v-7A1.75,1.75,0,0,0,25.4,7.83Zm.47,9a.25.25,0,0,1-.25.24H24.54a.64.64,0,0,0-.64.6v1.92l-2.33-2.33h0l0,0a.63.63,0,0,0-.42-.16h-8a.47.47,0,0,1-.47-.46v-7a.47.47,0,0,1,.47-.47H25.4a.47.47,0,0,1,.47.47Z"/><path class="cls-1" d="M19.25,12.45a.64.64,0,0,0,0,1.28.64.64,0,0,0,0-1.28Z"/><path class="cls-1" d="M4.81,4.23a.65.65,0,0,0,0,1.29H16.46a.65.65,0,0,0,0-1.29Z"/><path class="cls-1" d="M9.23,8.47H4.81a.64.64,0,0,0,0,1.28H9.23a.64.64,0,0,0,0-1.28Z"/><path class="cls-1" d="M16.27,12.45a.64.64,0,1,0,.64.64A.64.64,0,0,0,16.27,12.45Z"/><path class="cls-1" d="M22.22,12.45a.64.64,0,0,0,0,1.28.64.64,0,0,0,0-1.28Z"/></g></g></svg>