<svg xmlns="http://www.w3.org/2000/svg" viewBox="0 0 27.46 40.88"><defs><style>.cls-1{fill:#fff;}</style></defs><title>Asset 2</title><g id="Layer_2" data-name="Layer 2"><g id="Layer_1-2" data-name="Layer 1"><path class="cls-1" d="M17.1,40.88H6.37A2.5,2.5,0,0,1,3.9,38.61L1.52,10.43A2.48,2.48,0,0,1,4,7.75H19.48A2.47,2.47,0,0,1,22,10.43L19.57,38.61A2.5,2.5,0,0,1,17.1,40.88ZM4,8.89a1.29,1.29,0,0,0-1,.43,1.31,1.31,0,0,0-.35,1L5,38.51a1.34,1.34,0,0,0,1.33,1.22H17.1a1.34,1.34,0,0,0,1.33-1.22l2.38-28.18a1.31,1.31,0,0,0-.35-1,1.29,1.29,0,0,0-1-.43Z"/><path class="cls-1" d="M6.5,27.48A.58.58,0,0,1,5.93,27L4.86,14.29A.58.58,0,0,1,6,14.19L7.07,26.86a.57.57,0,0,1-.52.62Z"/><path class="cls-1" d="M7.09,34.49A.57.57,0,0,1,6.53,34l-.3-3.52a.57.57,0,1,1,1.14-.1l.3,3.52a.59.59,0,0,1-.53.62Z"/><path class="cls-1" d="M10.09,8.89a.58.58,0,0,1-.56-.45L8.46,3.68A1.89,1.89,0,0,0,6.92,2.22L.48,1.14A.58.58,0,0,1,0,.48.58.58,0,0,1,.67,0L7.11,1.09A3,3,0,0,1,9.58,3.43l1.07,4.76a.58.58,0,0,1-.43.69Z"/><path class="cls-1" d="M20,27.48a.58.58,0,0,1-.45-.22.58.58,0,0,1,.1-.81c2.32-1.78,8-7,6.42-9.71a2.45,2.45,0,0,0-1.74-1.39c-1.23-.13-2.6,1-3,1.5a.57.57,0,0,1-.81,0,.58.58,0,0,1,0-.81c.08-.08,1.95-2.08,4-1.85a3.46,3.46,0,0,1,2.61,2c1,1.78.18,4.23-2.54,7.29a34.19,34.19,0,0,1-4.17,3.9A.55.55,0,0,1,20,27.48Z"/><path class="cls-1" d="M21.3,11.88H2.17a.57.57,0,0,1-.57-.57.58.58,0,0,1,.57-.57H21.3a.57.57,0,0,1,.57.57A.56.56,0,0,1,21.3,11.88Z"/></g></g></svg>