<svg xmlns="http://www.w3.org/2000/svg" xmlns:xlink="http://www.w3.org/1999/xlink" viewBox="0 0 277.92 52.37"><defs><style>.cls-1{fill:url(#linear-gradient);}.cls-2,.cls-4,.cls-5{font-size:11.68px;font-family:MyriadPro-Regular, Myriad Pro;}.cls-11,.cls-2{fill:#00bc69;}.cls-3{font-size:5.39px;}.cls-4,.cls-6{fill:#ee5b24;}.cls-5{fill:#074e88;}.cls-7{fill:#035e6e;}.cls-8{fill:#00a650;}.cls-9{fill:#8dc965;}.cls-10{fill:#49702a;}</style><linearGradient id="linear-gradient" x1="1.67" y1="32.9" x2="258.52" y2="32.9" gradientUnits="userSpaceOnUse"><stop offset="0" stop-color="#f15a24"/><stop offset="0.36" stop-color="#074e88"/><stop offset="0.74" stop-color="#007944"/><stop offset="1" stop-color="#00bf6b"/></linearGradient></defs><title>Asset 4</title><g id="Layer_2" data-name="Layer 2"><g id="Layer_1-2" data-name="Layer 1"><rect class="cls-1" x="1.67" y="31.88" width="256.85" height="2.04"/><text class="cls-2" transform="translate(244.53 49.45)">200<tspan class="cls-3" x="17.97" y="0">pts</tspan></text><text class="cls-4" transform="translate(0 49.45)">0<tspan class="cls-3" x="5.99" y="0">pts</tspan></text><text class="cls-5" transform="translate(115.92 49.45)">100<tspan class="cls-3" x="17.97" y="0">pts</tspan></text><polygon class="cls-6" points="1.67 38.56 1.67 32.99 2.74 32.99 1.67 38.56"/><polygon class="cls-7" points="127.85 38.56 127.85 32.99 128.92 32.99 127.85 38.56"/><path class="cls-8" d="M257.1,26.81c.55-1.57,2.74-8.69-.22-14.06A15,15,0,0,1,258.1,10c4.65-8.11,16.6-10,16.6-10s4.4,11.26-.26,19.37c-2.91,5.08-8.69,7.72-12.6,9A27.37,27.37,0,0,1,264,17.42a28.9,28.9,0,0,1,7.73-10,29.72,29.72,0,0,0-10.66,10.37,27.8,27.8,0,0,0-3.4,11.16,33.41,33.41,0,0,1-1.54-6.83A23.19,23.19,0,0,1,257.1,26.81Z"/><path class="cls-9" d="M244.65,8.23s-3.29,8.44.2,14.53c2.18,3.8,6.51,5.78,9.45,6.73a20.39,20.39,0,0,0-1.64-8.2,21.55,21.55,0,0,0-5.79-7.51,22.3,22.3,0,0,1,8,7.78,20.91,20.91,0,0,1,2.55,8.37c.55-1.59,2.78-8.83-.31-14.21C253.61,9.64,244.65,8.23,244.65,8.23Z"/><path class="cls-10" d="M253.54,35.14c4.27,1.19,18.51.55,20.83-7.55C271.61,33.81,259.88,36.22,253.54,35.14Z"/><path class="cls-11" d="M258.71,31.88h-.43v2a20.37,20.37,0,0,0,19.64-16.35A20.18,20.18,0,0,1,258.71,31.88Z"/></g></g></svg>