<svg xmlns="http://www.w3.org/2000/svg" viewBox="0 0 15.87 15.87"><defs><style>.cls-1{fill:none;stroke:#00a650;stroke-linecap:round;stroke-linejoin:round;stroke-width:0.66px;}</style></defs><title>Asset 14</title><g id="Layer_2" data-name="Layer 2"><g id="Layer_1-2" data-name="Layer 1"><path class="cls-1" d="M9.67,1.86,9.12.33H6.75L6.2,1.86a6.29,6.29,0,0,0-1.34.55L3.4,1.71,1.71,3.4l.7,1.46A6.29,6.29,0,0,0,1.86,6.2L.33,6.75V9.12l1.53.55A6.29,6.29,0,0,0,2.41,11l-.7,1.46L3.4,14.15l1.46-.69A6.29,6.29,0,0,0,6.2,14l.55,1.53H9.12L9.67,14A6.29,6.29,0,0,0,11,13.46l1.46.69,1.68-1.68L13.46,11A6.29,6.29,0,0,0,14,9.67l1.53-.55V6.75L14,6.2a6.29,6.29,0,0,0-.55-1.34l.69-1.46L12.47,1.71,11,2.41A6.29,6.29,0,0,0,9.67,1.86Z"/><circle class="cls-1" cx="7.93" cy="7.93" r="2.98"/></g></g></svg>