<svg xmlns="http://www.w3.org/2000/svg" viewBox="0 0 26.83 18.95"><defs><style>.cls-1{fill:#004987;}</style></defs><title>Asset 2</title><g id="Layer_2" data-name="Layer 2"><g id="Layer_1-2" data-name="Layer 1"><path id="Plane" class="cls-1" d="M21.26,9.55a.26.26,0,0,0-.36-.09c-.15.06-.24.2-.19.31s.2.16.36.09A.27.27,0,0,0,21.26,9.55ZM20.05,7.43a.28.28,0,0,1-.36-.09A.27.27,0,0,1,19.88,7a.28.28,0,0,1,.36.09C20.29,7.22,20.2,7.36,20.05,7.43Zm.34.81A.28.28,0,0,1,20,8.15c-.05-.11,0-.26.19-.32a.28.28,0,0,1,.36.09C20.63,8,20.54,8.17,20.39,8.24Zm-.68-1.63a.26.26,0,0,1-.36-.09.27.27,0,0,1,.19-.31c.16-.07.32,0,.36.09S19.86,6.55,19.71,6.61Zm-1-2.44a.26.26,0,0,1-.36-.08.26.26,0,0,1,.19-.32.28.28,0,0,1,.36.09A.27.27,0,0,1,18.7,4.17Zm.67,1.63c-.15.06-.31,0-.35-.09s0-.25.19-.32.31,0,.35.09S19.53,5.74,19.37,5.8ZM19,5c-.16.06-.32,0-.36-.09s0-.26.19-.32a.28.28,0,0,1,.36.09A.28.28,0,0,1,19,5Zm1.69,4.06A.28.28,0,0,1,20.37,9c-.05-.11,0-.25.19-.32a.28.28,0,0,1,.36.09A.27.27,0,0,1,20.73,9.05ZM5,15.29a.28.28,0,0,1-.36-.09L3.19,11.64c0-.11,0-.26.19-.32a.28.28,0,0,1,.36.09L5.22,15A.26.26,0,0,1,5,15.29Zm.75-1.14a.26.26,0,0,1-.36-.08l-.89-2.16c0-.12,0-.26.19-.32s.31,0,.35.09L6,13.84C6,14,5.94,14.09,5.78,14.15Zm21-5.94-3-7.29A2.06,2.06,0,0,0,20.92.23l-2.12.89a.26.26,0,0,0-.2.29.9.9,0,0,1-.63,1,.89.89,0,0,1-1.13-.23.28.28,0,0,0-.35-.07L1.56,8.29A2.07,2.07,0,0,0,.1,10.74l3,7.29a2.07,2.07,0,0,0,2.77.69l14.93-6.21a.28.28,0,0,0,.19-.32,1,1,0,0,1,1.76-.74.28.28,0,0,0,.36.09l2.12-.88C26.43,10.17,27.09,9.07,26.73,8.21Zm-.55.23a1.53,1.53,0,0,1-1.09,1.81L23.22,11a1.51,1.51,0,0,0-1.76-.27,1.49,1.49,0,0,0-1.05,1.44L5.73,18.31a1.53,1.53,0,0,1-2.05-.51l-3-7.29C.38,9.87.87,9.06,1.73,8.7l14.7-6.12a1.55,1.55,0,0,0,1.71.2,1.52,1.52,0,0,0,1.05-1.35l1.9-.79a1.52,1.52,0,0,1,2.05.51ZM8.49,14.25l3.31-1.38a.28.28,0,0,1,.36.09c.05.11,0,.25-.19.32L8.66,14.66a.28.28,0,0,1-.36-.09A.27.27,0,0,1,8.49,14.25Zm1.38-6L6.56,9.6c-.15.06-.32,0-.36-.09s0-.25.19-.32L9.7,7.82a.26.26,0,0,1,.36.09A.27.27,0,0,1,9.87,8.22Zm.82.64-2.18.91c-.16.06-.32,0-.36-.09s0-.25.19-.31l2.19-.92c.15-.06.31,0,.35.09S10.85,8.8,10.69,8.86ZM9.57,13.1a.26.26,0,0,1,.19-.32L12,11.87a.28.28,0,0,1,.36.09.27.27,0,0,1-.19.31l-2.19.92C9.78,13.25,9.61,13.21,9.57,13.1ZM17.7,7.69a.82.82,0,0,0-1.09-.27l-1.92.79L12,6.83a.32.32,0,0,0-.27,0L11,7.15a.32.32,0,0,0-.19.17.18.18,0,0,0,0,.2l1.64,1.61-1.56.65-.67-.27a.34.34,0,0,0-.26,0l-.56.23a.33.33,0,0,0-.18.17.18.18,0,0,0,0,.2l.74.77L10,12a.16.16,0,0,0,.12.16.31.31,0,0,0,.25,0l.56-.23a.36.36,0,0,0,.19-.17l.28-.68L13,10.38v2.3a.17.17,0,0,0,.11.16.34.34,0,0,0,.26,0l.75-.31a.35.35,0,0,0,.19-.19l.91-2.88,1.91-.79C17.58,8.47,17.84,8,17.7,7.69Zm-.55.23c.05.11,0,.27-.19.33l-2.07.86a.3.3,0,0,0-.19.19l-.91,2.88-.23.09V10a.2.2,0,0,0-.11-.17.39.39,0,0,0-.26,0l-2.07.86a.35.35,0,0,0-.18.18l-.28.67-.07,0,0-.83a.17.17,0,0,0,0-.12L10,10,10,10l.67.28a.39.39,0,0,0,.26,0L13,9.38a.32.32,0,0,0,.19-.17.17.17,0,0,0,0-.2L11.53,7.4l.23-.1,2.68,1.38a.32.32,0,0,0,.27,0l2.07-.86A.29.29,0,0,1,17.15,7.92Zm6.18-2.87a.26.26,0,0,1-.19.32l-1.21.51a.28.28,0,0,1-.36-.09.23.23,0,0,1,.05-.22.17.17,0,0,1-.18-.11.26.26,0,0,1,.19-.32l1.2-.5c.16-.07.32,0,.36.09a.21.21,0,0,1,0,.21A.23.23,0,0,1,23.33,5.05Zm-.64-.76-1.21.51a.28.28,0,0,1-.36-.09.27.27,0,0,1,.19-.32l1.21-.5a.26.26,0,0,1,.36.08A.26.26,0,0,1,22.69,4.29ZM22.11,2.9l-1.21.5a.26.26,0,0,1-.36-.09A.27.27,0,0,1,20.73,3l1.21-.51a.28.28,0,0,1,.36.09C22.35,2.69,22.26,2.84,22.11,2.9Zm.34.81-1.21.5a.28.28,0,0,1-.36-.09.18.18,0,0,1,0-.16.21.21,0,0,1-.13-.11c-.05-.11,0-.25.19-.32L22.17,3c.15-.06.31,0,.35.09a.17.17,0,0,1,0,.17.17.17,0,0,1,.13.1A.28.28,0,0,1,22.45,3.71Zm1,2.47-1.2.5c-.16.06-.32,0-.36-.09s0-.25.19-.32l1.21-.5c.15-.06.31,0,.35.09S23.63,6.11,23.47,6.18Zm.25.59-1.21.51c-.15.06-.31,0-.35-.09s0-.26.19-.32l1.2-.5c.16-.07.32,0,.36.09S23.88,6.71,23.72,6.77Zm.35.82-1.21.51c-.15.06-.32,0-.36-.09a.15.15,0,0,1,0-.13.16.16,0,0,1-.09-.09c-.05-.11,0-.25.19-.32L23.81,7c.15-.06.31,0,.35.09a.19.19,0,0,1,0,.13.2.2,0,0,1,.09.09A.27.27,0,0,1,24.07,7.59Zm.31.75-1.21.5a.26.26,0,0,1-.36-.09c0-.11,0-.25.19-.31l1.21-.51a.28.28,0,0,1,.36.09A.27.27,0,0,1,24.38,8.34Z"/></g></g></svg>