<svg xmlns="http://www.w3.org/2000/svg" viewBox="0 0 22.62 22.31"><defs><style>.cls-1{fill:#004987;}</style></defs><title>Asset 1</title><g id="Layer_2" data-name="Layer 2"><g id="Layer_1-2" data-name="Layer 1"><path class="cls-1" d="M14.08,19.39c-1.14.2-2.23.53-1.87,1.95.35,1.76,3.55.65,3-1Z"/><path class="cls-1" d="M22.56,11.11c-3.63-23.62-34.74-4.27-17.28,9.2a.91.91,0,0,0,1.46-.7c0-.49.09-1.15-.41-1.43C.25,14.14,2.7,3.24,10.41,2.66c8.23-1.19,12.81,9.69,6.87,14.87-.46.32-.3,1.18-.32,1.65C19.06,22.57,23.16,13.45,22.56,11.11Z"/><path class="cls-1" d="M7.83,20.35c-.61,1.78,2.94,2.8,3.25,1.06.06-.62.09-1.58-.74-1.67S7.9,18.91,7.83,20.35Z"/><path class="cls-1" d="M14.84,13.2a5.26,5.26,0,0,0,.34,2.72C14.53,15.15,16.12,7.45,14.84,13.2Z"/><path class="cls-1" d="M10,11.57c.55-2.09.55-2.71-.18,0a3.72,3.72,0,0,0,.72,2.79A6.24,6.24,0,0,1,10,11.57Z"/><path class="cls-1" d="M6.18,14.22c-.39-1.1-.2-1.81,0-.43C6.37,14.35,7.44,15.91,6.18,14.22Z"/><path class="cls-1" d="M20.17,11.21c-1.85-16-23.58-5.3-14.54,5.34A.91.91,0,0,0,7.22,16c-.38-1.05-1.38-1.65-1.09-3.06.08-.12-.2-4.12.17-3.95.4-.19.1,3.89.19,4H7c-.18-5.25.54-5.2.36,0H8c-.18-5.25.54-5.2.36,0h.54c.09-.14-.22-4.16.2-4,.43-.16.13,3.83.22,4,.06,2.72-1.76,1.64-1.16,5.19.14,1.18,3.27,2.06,3.42.46l.08-2.6a.93.93,0,0,0-.51-.83C9,14,10,8.59,12,8.59s3.06,5.45.9,6.57c-.93.32-.32,2.71-.43,3.38.32,1.76,2.6.37,3.54-.08.5-1.57.12-.82-.12-1-2.77-2,.12-10.51,1.42-7.76v5.36C18.8,18,20.45,12.72,20.17,11.21Z"/></g></g></svg>