<svg id="svg" version="1.1" xmlns="http://www.w3.org/2000/svg" xmlns:xlink="http://www.w3.org/1999/xlink" width="400" height="350.31847133757964" viewBox="0, 0, 400,350.31847133757964"><g id="svgg"><path id="path0" d="M199.095 66.866 C 198.822 67.394,197.357 69.957,195.840 72.563 C 194.323 75.169,192.766 77.853,192.380 78.528 C 191.994 79.202,190.769 81.332,189.658 83.260 C 188.547 85.188,187.323 87.318,186.938 87.993 C 186.304 89.105,184.795 91.728,182.905 95.004 C 182.516 95.679,181.804 96.941,181.323 97.809 C 180.843 98.677,180.330 99.544,180.183 99.737 C 180.037 99.930,179.604 100.640,179.221 101.315 C 178.839 101.989,177.935 103.567,177.213 104.820 C 176.490 106.074,175.500 107.809,175.011 108.677 C 174.523 109.544,173.517 111.256,172.776 112.481 C 172.035 113.706,171.429 114.750,171.429 114.802 C 171.429 114.854,170.411 116.647,169.168 118.786 C 167.924 120.926,166.527 123.352,166.062 124.178 C 165.598 125.004,164.863 126.310,164.429 127.082 C 163.996 127.853,163.521 128.642,163.375 128.834 C 163.229 129.027,162.713 129.895,162.229 130.762 C 161.745 131.630,160.757 133.365,160.035 134.619 C 159.313 135.872,158.322 137.607,157.834 138.475 C 157.345 139.343,156.339 141.055,155.598 142.279 C 154.857 143.504,154.251 144.549,154.251 144.600 C 154.251 144.652,153.233 146.445,151.990 148.585 C 150.746 150.724,149.346 153.150,148.878 153.976 C 147.912 155.680,145.705 159.516,144.785 161.087 C 144.447 161.665,143.579 163.164,142.857 164.417 C 142.135 165.670,141.267 167.169,140.929 167.748 C 139.863 169.570,137.722 173.295,136.799 174.934 C 136.311 175.802,135.305 177.514,134.564 178.739 C 133.823 179.964,133.216 181.010,133.216 181.063 C 133.216 181.117,131.935 183.349,130.368 186.023 C 128.802 188.697,127.044 191.753,126.462 192.813 C 125.879 193.874,125.289 194.899,125.150 195.092 C 125.011 195.285,124.501 196.152,124.017 197.020 C 123.532 197.888,122.545 199.623,121.823 200.876 C 121.101 202.130,120.112 203.857,119.626 204.714 C 119.141 205.572,118.270 207.070,117.693 208.045 C 117.115 209.019,116.368 210.289,116.032 210.868 C 114.635 213.280,112.741 216.575,111.946 217.978 C 111.478 218.804,110.078 221.230,108.834 223.370 C 107.591 225.509,106.573 227.302,106.573 227.354 C 106.573 227.406,105.967 228.450,105.226 229.675 C 104.485 230.900,103.479 232.612,102.990 233.479 C 102.502 234.347,101.511 236.082,100.789 237.336 C 100.067 238.589,99.163 240.167,98.780 240.841 C 98.398 241.516,97.965 242.226,97.818 242.419 C 97.672 242.612,97.137 243.519,96.629 244.435 C 94.477 248.315,93.772 249.548,92.495 251.657 C 91.754 252.882,91.148 253.950,91.148 254.031 C 91.148 254.111,90.745 254.815,90.253 255.595 C 89.760 256.375,89.051 257.555,88.675 258.217 C 86.673 261.751,82.458 269.132,81.681 270.465 C 81.343 271.043,80.477 272.542,79.755 273.795 C 79.033 275.048,78.165 276.547,77.826 277.125 C 76.666 279.109,74.585 282.735,73.702 284.312 C 73.216 285.180,72.525 286.308,72.167 286.820 C 71.809 287.332,71.516 287.840,71.516 287.949 C 71.516 288.059,70.806 289.349,69.939 290.816 C 69.071 292.284,68.361 293.629,68.361 293.806 C 68.361 293.983,68.203 294.128,68.011 294.128 C 67.818 294.128,67.660 294.281,67.660 294.468 C 67.660 294.656,66.950 296.010,66.082 297.477 C 65.215 298.945,64.505 300.208,64.505 300.285 C 64.505 300.362,63.953 301.288,63.278 302.343 C 62.603 303.398,62.047 304.387,62.043 304.541 C 62.039 304.694,61.727 305.215,61.350 305.697 C 60.973 306.179,60.661 306.849,60.656 307.187 C 60.649 307.770,67.515 307.800,200.000 307.800 C 311.248 307.800,339.351 307.712,339.350 307.362 C 339.349 307.121,339.061 306.450,338.708 305.872 C 338.070 304.823,337.024 302.982,335.273 299.825 C 334.765 298.909,334.230 298.002,334.083 297.809 C 333.937 297.616,333.485 296.867,333.079 296.144 C 331.214 292.825,330.662 291.859,327.610 286.591 C 324.503 281.226,323.797 279.995,322.136 277.038 C 321.730 276.315,321.278 275.565,321.131 275.372 C 320.985 275.180,320.468 274.312,319.982 273.444 C 318.922 271.551,315.474 265.544,314.046 263.103 C 313.482 262.138,312.932 261.074,312.823 260.736 C 312.715 260.399,312.487 260.123,312.317 260.123 C 312.146 260.123,312.007 259.985,312.007 259.817 C 312.007 259.648,310.429 256.796,308.501 253.479 C 306.573 250.162,304.996 247.384,304.996 247.307 C 304.996 247.229,304.443 246.302,303.769 245.247 C 303.094 244.192,302.542 243.259,302.542 243.173 C 302.542 243.087,301.935 242.014,301.194 240.790 C 299.918 238.680,299.213 237.448,297.061 233.567 C 296.553 232.651,296.018 231.744,295.871 231.551 C 295.725 231.358,295.292 230.649,294.911 229.974 C 294.529 229.299,293.353 227.248,292.299 225.416 C 290.055 221.519,286.240 214.867,285.311 213.234 C 284.443 211.709,283.757 210.528,281.039 205.884 C 278.795 202.048,277.762 200.240,275.978 197.020 C 275.497 196.152,274.984 195.285,274.837 195.092 C 274.691 194.899,274.258 194.189,273.875 193.514 C 273.493 192.840,272.589 191.262,271.866 190.009 C 271.144 188.755,270.157 187.020,269.673 186.152 C 269.189 185.285,268.679 184.417,268.540 184.224 C 268.401 184.032,267.810 183.006,267.228 181.946 C 266.646 180.885,264.888 177.830,263.321 175.156 C 261.755 172.482,260.473 170.250,260.473 170.196 C 260.473 170.142,259.867 169.096,259.126 167.871 C 258.385 166.646,257.379 164.934,256.890 164.067 C 256.111 162.683,254.865 160.509,252.769 156.880 C 247.475 147.714,245.749 144.643,245.749 144.389 C 245.749 144.222,245.592 144.084,245.399 144.084 C 245.206 144.084,245.048 143.947,245.048 143.779 C 245.048 143.611,244.031 141.723,242.787 139.584 C 241.544 137.444,240.143 135.018,239.675 134.192 C 238.709 132.488,236.502 128.653,235.583 127.082 C 235.244 126.503,234.377 125.004,233.655 123.751 C 232.933 122.498,232.066 120.999,231.728 120.421 C 230.622 118.527,224.148 107.264,222.257 103.944 C 221.928 103.365,221.185 102.095,220.607 101.121 C 220.029 100.147,219.159 98.648,218.673 97.791 C 217.688 96.051,215.492 92.234,214.549 90.622 C 213.606 89.011,211.409 85.193,210.424 83.454 C 209.938 82.596,209.090 81.130,208.539 80.196 C 207.988 79.261,207.537 78.346,207.537 78.162 C 207.537 77.977,207.379 77.826,207.187 77.826 C 206.994 77.826,206.836 77.687,206.836 77.517 C 206.836 77.348,205.613 75.097,204.119 72.517 C 202.625 69.937,201.178 67.394,200.905 66.866 C 200.631 66.339,200.224 65.907,200.000 65.907 C 199.776 65.907,199.369 66.339,199.095 66.866 M206.165 118.529 C 213.186 120.834,217.973 126.433,219.127 133.693 C 219.742 137.561,219.334 150.234,218.047 167.222 C 217.850 169.825,217.533 174.084,217.344 176.687 C 217.155 179.290,216.850 183.471,216.667 185.977 C 216.485 188.484,216.179 192.901,215.987 195.793 C 213.314 236.210,211.727 240.661,200.000 240.628 C 193.011 240.608,190.233 238.518,188.167 231.727 C 187.030 227.989,186.877 227.286,186.031 221.911 C 185.699 219.803,185.130 212.948,184.576 204.382 C 184.283 199.851,183.957 195.118,183.853 193.865 C 183.658 191.521,183.267 186.162,182.665 177.564 C 182.476 174.864,182.166 170.684,181.977 168.273 C 180.856 154.004,180.303 139.074,180.744 135.022 C 181.653 126.684,186.024 121.210,194.040 118.370 C 196.384 117.540,203.431 117.632,206.165 118.529 M205.968 255.754 C 207.467 256.244,209.129 256.954,209.660 257.332 C 210.191 257.710,210.770 258.019,210.947 258.019 C 211.592 258.019,215.808 262.540,216.967 264.475 C 228.048 282.975,205.372 303.280,188.081 290.342 C 181.716 285.580,178.821 277.490,180.757 269.879 C 181.284 267.809,181.627 266.976,183.147 264.078 C 183.885 262.671,188.471 258.019,189.120 258.019 C 189.384 258.019,189.652 257.895,189.717 257.742 C 189.885 257.344,193.771 255.566,194.488 255.560 C 194.820 255.557,195.329 255.402,195.618 255.215 C 196.756 254.479,203.071 254.809,205.968 255.754 " stroke="none" fill="#fbfbfb" fill-rule="evenodd"></path><path id="path1" d="M197.003 118.150 C 188.831 119.409,183.062 124.936,181.236 133.258 C 180.588 136.211,181.014 150.071,182.268 166.871 C 182.463 169.474,182.866 175.074,183.166 179.316 C 183.465 183.558,183.869 189.159,184.064 191.762 C 184.259 194.365,184.565 198.624,184.743 201.227 C 186.339 224.477,187.081 229.362,189.899 235.150 C 194.185 243.955,209.594 241.539,211.508 231.763 C 211.606 231.261,211.857 230.219,212.065 229.448 C 213.447 224.327,213.831 220.654,215.623 195.443 C 215.815 192.743,216.129 188.563,216.321 186.152 C 216.512 183.742,216.833 179.325,217.034 176.337 C 217.235 173.348,217.556 168.694,217.747 165.995 C 219.574 140.275,219.538 134.801,217.503 129.360 C 214.657 121.748,205.644 116.819,197.003 118.150 M195.638 255.574 C 189.244 256.922,184.069 261.819,181.199 269.238 C 180.554 270.904,180.568 277.649,181.221 279.930 C 185.270 294.073,203.082 298.706,213.635 288.362 C 227.389 274.879,214.598 251.576,195.638 255.574 " stroke="none" fill="#050505" fill-rule="evenodd"></path><path id="path2" d="M196.670 5.126 C 194.685 5.500,190.710 7.263,190.710 7.768 C 190.710 7.930,190.545 8.063,190.345 8.063 C 189.626 8.063,186.854 10.750,186.854 11.446 C 186.854 11.706,186.699 11.919,186.510 11.919 C 186.321 11.919,186.067 12.314,185.946 12.796 C 185.825 13.278,185.585 13.672,185.413 13.672 C 185.241 13.672,185.101 13.930,185.101 14.245 C 185.101 14.559,184.817 15.072,184.469 15.384 C 183.894 15.900,182.647 18.194,182.647 18.735 C 182.647 18.859,182.331 19.299,181.946 19.713 C 181.560 20.127,181.245 20.672,181.245 20.925 C 181.245 21.178,181.087 21.385,180.894 21.385 C 180.701 21.385,180.543 21.700,180.543 22.086 C 180.543 22.472,180.425 22.788,180.280 22.789 C 179.928 22.792,178.791 24.819,178.791 25.445 C 178.791 25.718,178.633 25.942,178.440 25.942 C 178.247 25.942,178.089 26.107,178.089 26.307 C 178.089 26.508,177.774 27.011,177.388 27.425 C 177.003 27.839,176.687 28.385,176.687 28.638 C 176.687 28.890,176.520 29.097,176.316 29.097 C 176.112 29.097,176.035 29.244,176.146 29.424 C 176.257 29.603,176.188 29.849,175.992 29.970 C 175.796 30.091,175.635 30.462,175.635 30.793 C 175.635 31.125,175.320 31.624,174.934 31.902 C 174.549 32.180,174.233 32.688,174.233 33.031 C 174.233 33.374,174.075 33.655,173.883 33.655 C 173.690 33.655,173.532 33.891,173.532 34.181 C 173.532 34.470,173.374 34.706,173.181 34.706 C 172.989 34.706,172.831 35.022,172.831 35.408 C 172.831 35.793,172.676 36.109,172.487 36.109 C 172.298 36.109,172.044 36.503,171.923 36.985 C 171.802 37.467,171.562 37.862,171.391 37.862 C 171.219 37.862,171.078 38.164,171.078 38.533 C 171.078 38.903,170.954 39.258,170.802 39.322 C 170.284 39.542,169.021 41.584,168.767 42.616 C 168.626 43.182,168.249 43.883,167.928 44.172 C 167.607 44.461,167.120 45.210,166.847 45.837 C 166.573 46.464,166.230 46.976,166.084 46.976 C 165.939 46.976,165.819 47.194,165.819 47.459 C 165.819 47.725,165.583 48.139,165.294 48.379 C 165.004 48.619,164.768 49.111,164.768 49.473 C 164.768 49.835,164.610 50.131,164.417 50.131 C 164.224 50.131,164.067 50.368,164.067 50.657 C 164.067 50.947,163.909 51.183,163.716 51.183 C 163.523 51.183,163.365 51.356,163.365 51.567 C 163.365 51.779,163.071 52.370,162.710 52.882 C 162.350 53.394,161.936 54.195,161.791 54.662 C 161.646 55.129,161.231 55.829,160.869 56.218 C 160.507 56.607,160.210 57.131,160.210 57.384 C 160.210 57.637,160.053 57.844,159.860 57.844 C 159.667 57.844,159.509 58.081,159.509 58.370 C 159.509 58.659,159.351 58.896,159.159 58.896 C 158.966 58.896,158.808 59.200,158.808 59.572 C 158.808 59.944,158.571 60.485,158.282 60.774 C 157.993 61.063,157.756 61.469,157.756 61.675 C 157.756 61.882,157.599 62.051,157.406 62.051 C 157.213 62.051,157.055 62.366,157.055 62.752 C 157.055 63.138,156.897 63.453,156.705 63.453 C 156.512 63.453,156.354 63.619,156.354 63.822 C 156.354 64.025,155.960 64.772,155.478 65.481 C 154.996 66.191,154.601 66.982,154.601 67.241 C 154.601 67.499,154.404 67.918,154.163 68.172 C 153.050 69.345,152.498 70.164,152.498 70.644 C 152.498 70.931,152.379 71.167,152.235 71.169 C 152.090 71.171,151.661 71.881,151.280 72.747 C 150.899 73.612,150.495 74.321,150.381 74.321 C 150.268 74.321,149.958 74.873,149.693 75.548 C 149.428 76.223,149.099 76.775,148.961 76.775 C 148.824 76.775,148.419 77.484,148.063 78.351 C 147.706 79.218,147.296 79.928,147.152 79.929 C 147.007 79.929,146.889 80.137,146.889 80.390 C 146.889 80.642,146.607 81.155,146.263 81.529 C 145.918 81.903,145.292 82.918,144.871 83.786 C 143.857 85.875,142.919 87.440,142.594 87.584 C 142.450 87.648,142.331 87.931,142.331 88.212 C 142.331 88.493,142.005 89.072,141.606 89.498 C 141.207 89.923,140.793 90.706,140.686 91.236 C 140.579 91.766,140.353 92.200,140.184 92.200 C 140.015 92.200,139.877 92.364,139.877 92.565 C 139.877 92.766,139.562 93.269,139.176 93.683 C 138.791 94.097,138.475 94.642,138.475 94.895 C 138.475 95.148,138.330 95.355,138.152 95.355 C 137.975 95.355,137.730 95.807,137.609 96.359 C 137.488 96.912,137.081 97.694,136.705 98.097 C 136.329 98.501,136.021 99.061,136.021 99.343 C 136.021 99.624,135.903 99.907,135.758 99.971 C 135.426 100.119,134.344 101.892,133.816 103.155 C 133.595 103.685,133.290 104.119,133.140 104.119 C 132.989 104.119,132.866 104.422,132.866 104.791 C 132.866 105.161,132.742 105.516,132.590 105.580 C 132.072 105.800,130.809 107.842,130.554 108.873 C 130.414 109.440,130.010 110.159,129.655 110.471 C 129.300 110.782,129.010 111.216,129.010 111.435 C 129.010 111.653,128.852 111.832,128.659 111.832 C 128.466 111.832,128.309 112.147,128.309 112.533 C 128.309 112.918,128.190 113.235,128.046 113.236 C 127.693 113.239,126.556 115.266,126.556 115.892 C 126.556 116.165,126.398 116.389,126.205 116.389 C 126.012 116.389,125.855 116.558,125.855 116.764 C 125.855 116.970,125.403 117.799,124.851 118.605 C 124.299 119.411,123.724 120.465,123.574 120.947 C 123.423 121.429,123.007 122.078,122.649 122.390 C 122.291 122.702,121.998 123.214,121.998 123.529 C 121.998 123.844,121.840 124.102,121.648 124.102 C 121.455 124.102,121.297 124.338,121.297 124.628 C 121.297 124.917,121.139 125.153,120.947 125.153 C 120.754 125.153,120.596 125.450,120.596 125.812 C 120.596 126.174,120.359 126.666,120.070 126.906 C 119.781 127.146,119.544 127.560,119.544 127.826 C 119.544 128.091,119.387 128.309,119.194 128.309 C 119.001 128.309,118.843 128.611,118.843 128.980 C 118.843 129.350,118.719 129.705,118.567 129.769 C 118.160 129.942,116.389 133.089,116.389 133.640 C 116.389 133.900,116.074 134.341,115.688 134.619 C 115.302 134.897,114.987 135.326,114.987 135.573 C 114.987 135.819,114.829 136.021,114.636 136.021 C 114.443 136.021,114.286 136.261,114.286 136.554 C 114.286 136.847,113.891 137.711,113.409 138.475 C 112.927 139.239,112.533 140.024,112.533 140.221 C 112.533 140.418,112.375 140.578,112.182 140.578 C 111.989 140.578,111.832 140.894,111.832 141.280 C 111.832 141.665,111.674 141.981,111.481 141.981 C 111.288 141.981,111.131 142.217,111.131 142.507 C 111.131 142.796,110.997 143.032,110.833 143.032 C 110.670 143.032,110.238 143.703,109.874 144.522 C 109.510 145.342,108.933 146.318,108.594 146.692 C 108.254 147.066,107.975 147.578,107.975 147.831 C 107.975 148.084,107.850 148.291,107.697 148.291 C 107.543 148.291,107.125 149.001,106.768 149.869 C 106.410 150.736,105.983 151.446,105.819 151.446 C 105.655 151.446,105.521 151.762,105.521 152.147 C 105.521 152.533,105.364 152.848,105.171 152.848 C 104.978 152.848,104.820 153.085,104.820 153.374 C 104.820 153.663,104.663 153.900,104.470 153.900 C 104.277 153.900,104.119 154.143,104.119 154.441 C 104.119 154.738,103.798 155.326,103.404 155.748 C 103.011 156.170,102.591 156.908,102.471 157.387 C 102.351 157.866,101.962 158.570,101.608 158.950 C 101.254 159.330,100.964 159.848,100.964 160.101 C 100.964 160.354,100.806 160.561,100.613 160.561 C 100.421 160.561,100.263 160.798,100.263 161.087 C 100.263 161.376,100.105 161.613,99.912 161.613 C 99.720 161.613,99.562 161.917,99.562 162.289 C 99.562 162.661,99.325 163.201,99.036 163.491 C 98.747 163.780,98.510 164.186,98.510 164.392 C 98.510 164.599,98.352 164.768,98.160 164.768 C 97.967 164.768,97.809 165.083,97.809 165.469 C 97.809 165.855,97.651 166.170,97.458 166.170 C 97.266 166.170,97.108 166.407,97.108 166.696 C 97.108 166.985,96.966 167.222,96.792 167.222 C 96.618 167.222,96.184 167.931,95.828 168.798 C 95.471 169.665,95.061 170.375,94.917 170.376 C 94.772 170.376,94.654 170.658,94.654 171.001 C 94.654 171.344,94.338 171.852,93.953 172.130 C 93.567 172.408,93.252 172.916,93.252 173.259 C 93.252 173.602,93.133 173.884,92.989 173.886 C 92.844 173.888,92.414 174.598,92.034 175.463 C 91.653 176.329,91.219 177.038,91.070 177.038 C 90.920 177.038,90.798 177.274,90.798 177.564 C 90.798 177.853,90.640 178.089,90.447 178.089 C 90.254 178.089,90.096 178.405,90.096 178.791 C 90.096 179.176,89.978 179.493,89.833 179.494 C 89.481 179.497,88.344 181.524,88.344 182.149 C 88.344 182.423,88.186 182.647,87.993 182.647 C 87.800 182.647,87.642 182.904,87.642 183.219 C 87.642 183.534,87.364 184.047,87.024 184.359 C 86.684 184.670,85.955 185.833,85.405 186.941 C 84.854 188.050,84.265 188.957,84.095 188.957 C 83.925 188.957,83.786 189.273,83.786 189.658 C 83.786 190.044,83.668 190.361,83.523 190.362 C 83.379 190.364,83.091 190.719,82.884 191.151 C 81.859 193.292,80.391 195.859,79.842 196.470 C 79.505 196.845,79.229 197.359,79.229 197.612 C 79.229 197.865,79.084 198.072,78.906 198.072 C 78.729 198.072,78.471 198.584,78.333 199.211 C 78.196 199.837,77.789 200.605,77.429 200.917 C 77.069 201.229,76.775 201.663,76.775 201.882 C 76.775 202.100,76.617 202.279,76.424 202.279 C 76.231 202.279,76.074 202.594,76.074 202.980 C 76.074 203.365,75.955 203.682,75.811 203.684 C 75.666 203.686,75.236 204.396,74.856 205.262 C 74.475 206.128,74.041 206.836,73.892 206.836 C 73.742 206.836,73.620 207.138,73.620 207.508 C 73.620 207.878,73.496 208.233,73.344 208.297 C 72.906 208.483,71.633 210.436,71.344 211.367 C 71.199 211.834,70.784 212.534,70.422 212.923 C 70.060 213.311,69.763 213.836,69.763 214.089 C 69.763 214.342,69.638 214.549,69.485 214.549 C 69.331 214.549,68.913 215.259,68.555 216.126 C 68.198 216.994,67.771 217.704,67.607 217.704 C 67.443 217.704,67.309 218.019,67.309 218.405 C 67.309 218.791,67.152 219.106,66.959 219.106 C 66.766 219.106,66.608 219.343,66.608 219.632 C 66.608 219.921,66.450 220.158,66.258 220.158 C 66.065 220.158,65.907 220.324,65.907 220.527 C 65.907 220.730,65.513 221.476,65.031 222.186 C 64.549 222.895,64.154 223.682,64.154 223.935 C 64.154 224.187,63.839 224.732,63.453 225.146 C 63.068 225.560,62.556 226.342,62.316 226.884 C 62.076 227.427,61.760 227.870,61.615 227.870 C 61.469 227.870,61.350 228.175,61.350 228.546 C 61.350 228.918,61.113 229.459,60.824 229.748 C 60.535 230.038,60.298 230.443,60.298 230.650 C 60.298 230.856,60.140 231.025,59.947 231.025 C 59.755 231.025,59.597 231.341,59.597 231.727 C 59.597 232.112,59.439 232.428,59.246 232.428 C 59.053 232.428,58.896 232.664,58.896 232.954 C 58.896 233.243,58.766 233.479,58.607 233.479 C 58.448 233.479,57.893 234.399,57.375 235.522 C 56.856 236.646,56.118 237.901,55.735 238.312 C 55.353 238.723,55.039 239.302,55.039 239.600 C 55.039 239.897,54.921 240.142,54.777 240.144 C 54.632 240.145,54.202 240.855,53.822 241.721 C 53.441 242.587,53.046 243.295,52.943 243.295 C 52.840 243.295,52.534 243.808,52.261 244.435 C 51.988 245.061,51.670 245.653,51.554 245.749 C 51.063 246.156,50.131 247.870,50.131 248.366 C 50.131 248.662,49.974 248.904,49.781 248.904 C 49.588 248.904,49.430 249.111,49.430 249.364 C 49.430 249.617,49.154 250.130,48.817 250.504 C 48.479 250.877,47.751 252.090,47.197 253.199 C 46.644 254.308,46.053 255.215,45.883 255.215 C 45.713 255.215,45.574 255.530,45.574 255.916 C 45.574 256.301,45.416 256.617,45.223 256.617 C 45.031 256.617,44.873 256.783,44.873 256.986 C 44.873 257.189,44.479 257.936,43.996 258.645 C 43.514 259.354,43.120 260.214,43.120 260.555 C 43.120 260.896,42.962 261.174,42.770 261.174 C 42.577 261.174,42.419 261.339,42.419 261.540 C 42.419 261.741,42.103 262.244,41.718 262.657 C 41.332 263.071,41.017 263.617,41.017 263.870 C 41.017 264.123,40.871 264.330,40.694 264.330 C 40.516 264.330,40.272 264.781,40.151 265.334 C 40.029 265.886,39.622 266.668,39.246 267.072 C 38.870 267.476,38.563 267.970,38.563 268.171 C 38.563 268.372,38.405 268.536,38.212 268.536 C 38.019 268.536,37.862 268.852,37.862 269.238 C 37.862 269.623,37.719 269.939,37.546 269.939 C 37.372 269.939,36.938 270.648,36.582 271.515 C 36.225 272.382,35.815 273.092,35.670 273.092 C 35.526 273.093,35.408 273.351,35.408 273.666 C 35.408 273.981,35.123 274.494,34.776 274.806 C 34.201 275.322,32.954 277.616,32.954 278.157 C 32.954 278.281,32.638 278.720,32.252 279.134 C 31.867 279.548,31.551 280.094,31.551 280.347 C 31.551 280.599,31.394 280.806,31.201 280.806 C 31.008 280.806,30.850 281.122,30.850 281.507 C 30.850 281.893,30.732 282.210,30.587 282.211 C 30.235 282.214,29.097 284.241,29.097 284.866 C 29.097 285.140,28.940 285.364,28.747 285.364 C 28.554 285.364,28.396 285.587,28.396 285.860 C 28.396 286.134,28.272 286.410,28.120 286.474 C 27.713 286.646,25.942 289.793,25.942 290.344 C 25.942 290.605,25.627 291.045,25.241 291.323 C 24.855 291.601,24.540 292.109,24.540 292.453 C 24.540 292.796,24.382 293.076,24.189 293.076 C 23.996 293.076,23.839 293.313,23.839 293.602 C 23.839 293.891,23.681 294.128,23.488 294.128 C 23.295 294.128,23.138 294.432,23.138 294.804 C 23.138 295.176,22.901 295.717,22.612 296.006 C 22.323 296.295,22.086 296.701,22.086 296.907 C 22.086 297.114,21.928 297.283,21.735 297.283 C 21.543 297.283,21.385 297.599,21.385 297.984 C 21.385 298.370,21.252 298.685,21.090 298.685 C 20.723 298.685,18.931 301.934,18.931 302.599 C 18.931 302.868,18.615 303.315,18.230 303.593 C 17.844 303.871,17.528 304.301,17.528 304.547 C 17.528 304.794,17.371 304.996,17.178 304.996 C 16.985 304.996,16.827 305.311,16.827 305.697 C 16.827 306.082,16.687 306.398,16.515 306.398 C 16.343 306.398,16.103 306.792,15.982 307.274 C 15.861 307.756,15.608 308.151,15.418 308.151 C 15.229 308.151,15.074 308.466,15.074 308.852 C 15.074 309.238,14.917 309.553,14.724 309.553 C 14.531 309.553,14.373 309.790,14.373 310.079 C 14.373 310.368,14.255 310.607,14.110 310.611 C 13.966 310.614,13.374 311.599,12.796 312.801 C 12.217 314.003,11.551 315.191,11.315 315.441 C 11.078 315.691,10.627 316.441,10.311 317.107 C 9.995 317.772,9.596 318.317,9.425 318.317 C 9.255 318.317,9.115 318.622,9.115 318.993 C 9.115 319.365,8.908 319.878,8.655 320.133 C 8.402 320.388,7.969 321.109,7.693 321.735 C 7.417 322.362,7.072 322.875,6.926 322.875 C 6.780 322.875,6.661 323.260,6.661 323.730 C 6.661 324.201,6.503 324.684,6.310 324.803 C 5.844 325.091,5.844 333.980,6.310 334.268 C 6.503 334.387,6.661 334.870,6.661 335.341 C 6.661 335.811,6.819 336.196,7.011 336.196 C 7.204 336.196,7.362 336.512,7.362 336.897 C 7.362 337.283,7.520 337.599,7.713 337.599 C 7.905 337.599,8.063 337.835,8.063 338.124 C 8.063 338.414,8.185 338.650,8.334 338.650 C 8.483 338.650,8.885 339.171,9.228 339.807 C 9.570 340.443,10.247 341.261,10.731 341.625 C 11.214 341.988,12.035 342.651,12.554 343.097 C 13.072 343.543,13.694 343.908,13.935 343.908 C 14.176 343.909,14.373 344.032,14.373 344.183 C 14.373 345.520,9.643 345.486,200.351 345.486 L 382.997 345.486 385.350 344.317 C 386.665 343.664,387.796 342.852,387.915 342.477 C 388.032 342.108,388.337 341.805,388.594 341.805 C 388.850 341.805,389.510 341.243,390.060 340.557 C 390.610 339.870,391.228 339.120,391.433 338.891 C 391.637 338.662,392.031 337.962,392.307 337.336 C 392.583 336.709,392.928 336.196,393.074 336.196 C 393.220 336.196,393.339 335.811,393.339 335.341 C 393.339 334.870,393.497 334.387,393.690 334.268 C 394.127 333.998,394.161 325.905,393.728 325.061 C 393.556 324.726,393.046 323.663,392.593 322.699 C 392.141 321.735,391.672 320.868,391.551 320.771 C 391.429 320.675,391.209 320.202,391.062 319.720 C 390.771 318.770,389.503 316.812,389.057 316.623 C 388.906 316.559,388.782 316.204,388.782 315.834 C 388.782 315.465,388.663 315.161,388.519 315.159 C 388.374 315.157,387.944 314.447,387.564 313.581 C 387.183 312.715,386.749 312.007,386.600 312.007 C 386.450 312.007,386.328 311.691,386.328 311.306 C 386.328 310.920,386.170 310.605,385.977 310.605 C 385.784 310.605,385.627 310.440,385.627 310.240 C 385.627 310.039,385.319 309.544,384.943 309.140 C 384.567 308.737,384.160 307.955,384.039 307.402 C 383.917 306.850,383.673 306.398,383.495 306.398 C 383.318 306.398,383.173 306.191,383.173 305.938 C 383.173 305.685,382.857 305.140,382.472 304.726 C 382.086 304.312,381.770 303.809,381.770 303.608 C 381.770 303.407,381.613 303.243,381.420 303.243 C 381.227 303.243,381.069 302.964,381.069 302.623 C 381.069 302.282,380.675 301.423,380.193 300.713 C 379.711 300.004,379.316 299.258,379.316 299.055 C 379.316 298.851,379.159 298.685,378.966 298.685 C 378.773 298.685,378.615 298.370,378.615 297.984 C 378.615 297.599,378.460 297.283,378.271 297.283 C 378.082 297.283,377.828 296.889,377.708 296.407 C 377.587 295.925,377.347 295.530,377.175 295.530 C 377.003 295.530,376.862 295.215,376.862 294.829 C 376.862 294.443,376.705 294.128,376.512 294.128 C 376.319 294.128,376.161 293.964,376.161 293.763 C 376.161 293.562,375.846 293.059,375.460 292.645 C 375.074 292.231,374.759 291.685,374.759 291.433 C 374.759 291.180,374.601 290.973,374.408 290.973 C 374.216 290.973,374.058 290.749,374.058 290.475 C 374.058 289.850,372.921 287.823,372.568 287.820 C 372.423 287.819,372.305 287.502,372.305 287.117 C 372.305 286.731,372.147 286.415,371.954 286.415 C 371.762 286.415,371.604 286.179,371.604 285.890 C 371.604 285.600,371.486 285.362,371.341 285.360 C 371.196 285.359,370.767 284.649,370.386 283.783 C 370.005 282.917,369.571 282.209,369.422 282.209 C 369.272 282.209,369.150 281.893,369.150 281.507 C 369.150 281.122,369.019 280.806,368.859 280.806 C 368.698 280.806,368.344 280.372,368.070 279.842 C 367.797 279.312,367.490 278.799,367.388 278.703 C 367.286 278.606,366.907 277.857,366.545 277.038 C 366.184 276.218,365.754 275.548,365.591 275.548 C 365.427 275.548,365.294 275.311,365.294 275.022 C 365.294 274.733,365.136 274.496,364.943 274.496 C 364.750 274.496,364.592 274.181,364.592 273.795 C 364.592 273.409,364.452 273.094,364.280 273.094 C 364.108 273.094,363.868 272.699,363.747 272.217 C 363.626 271.735,363.373 271.341,363.184 271.341 C 362.994 271.341,362.840 271.025,362.840 270.640 C 362.840 270.254,362.720 269.939,362.575 269.939 C 362.429 269.939,362.113 269.495,361.873 268.953 C 361.633 268.411,361.121 267.628,360.736 267.215 C 360.350 266.801,360.035 266.256,360.035 266.003 C 360.035 265.751,359.641 264.964,359.159 264.254 C 358.677 263.545,358.282 262.798,358.282 262.595 C 358.282 262.392,358.124 262.226,357.932 262.226 C 357.739 262.226,357.581 261.989,357.581 261.700 C 357.581 261.411,357.423 261.174,357.230 261.174 C 357.038 261.174,356.880 260.878,356.880 260.516 C 356.880 260.154,356.676 259.689,356.426 259.481 C 356.177 259.274,355.753 258.545,355.484 257.861 C 355.216 257.177,354.868 256.617,354.711 256.617 C 354.554 256.617,354.426 256.410,354.426 256.157 C 354.426 255.904,354.130 255.380,353.768 254.991 C 353.406 254.602,352.991 253.902,352.845 253.435 C 352.556 252.504,351.283 250.551,350.845 250.365 C 350.694 250.301,350.570 249.946,350.570 249.576 C 350.570 249.207,350.451 248.903,350.307 248.901 C 350.162 248.899,349.732 248.189,349.352 247.324 C 348.971 246.458,348.537 245.749,348.388 245.749 C 348.238 245.749,348.116 245.515,348.116 245.227 C 348.116 244.755,347.573 243.942,346.493 242.798 C 346.276 242.568,345.987 241.875,345.852 241.260 C 345.717 240.644,345.461 240.140,345.283 240.140 C 345.106 240.140,344.961 239.933,344.961 239.680 C 344.961 239.428,344.684 238.915,344.347 238.541 C 344.010 238.167,343.265 236.915,342.693 235.758 C 342.121 234.601,341.529 233.602,341.378 233.538 C 341.228 233.474,341.104 233.197,341.104 232.924 C 341.104 232.651,340.947 232.428,340.754 232.428 C 340.561 232.428,340.403 232.184,340.403 231.887 C 340.403 231.590,340.082 231.001,339.688 230.580 C 339.295 230.158,338.877 229.429,338.760 228.959 C 338.561 228.167,338.062 227.413,336.985 226.279 C 336.744 226.025,336.547 225.569,336.547 225.266 C 336.547 224.963,336.389 224.715,336.196 224.715 C 336.004 224.715,335.846 224.491,335.846 224.218 C 335.846 223.592,334.708 221.565,334.356 221.562 C 334.211 221.561,334.093 221.245,334.093 220.859 C 334.093 220.473,333.935 220.158,333.742 220.158 C 333.550 220.158,333.392 219.921,333.392 219.632 C 333.392 219.343,333.273 219.105,333.129 219.103 C 332.984 219.101,332.554 218.391,332.174 217.525 C 331.793 216.659,331.359 215.951,331.210 215.951 C 331.060 215.951,330.938 215.670,330.938 215.327 C 330.938 214.984,330.622 214.476,330.237 214.198 C 329.851 213.920,329.535 213.412,329.535 213.069 C 329.535 212.726,329.417 212.445,329.273 212.444 C 329.128 212.443,328.718 211.733,328.361 210.866 C 328.005 209.999,327.571 209.290,327.397 209.290 C 327.224 209.290,327.082 209.053,327.082 208.764 C 327.082 208.475,326.924 208.238,326.731 208.238 C 326.538 208.238,326.380 207.923,326.380 207.537 C 326.380 207.152,326.240 206.836,326.068 206.836 C 325.896 206.836,325.656 206.442,325.535 205.960 C 325.414 205.478,325.161 205.083,324.971 205.083 C 324.782 205.083,324.628 204.768,324.628 204.382 C 324.628 203.996,324.470 203.681,324.277 203.681 C 324.084 203.681,323.926 203.474,323.926 203.221 C 323.926 202.968,323.611 202.423,323.225 202.009 C 322.840 201.595,322.524 201.092,322.524 200.891 C 322.524 200.690,322.386 200.526,322.217 200.526 C 322.049 200.526,321.823 200.092,321.716 199.562 C 321.608 199.032,321.194 198.249,320.795 197.824 C 320.396 197.398,320.070 196.806,320.070 196.509 C 320.070 196.212,319.912 195.968,319.720 195.968 C 319.527 195.968,319.369 195.732,319.369 195.443 C 319.369 195.153,319.211 194.917,319.018 194.917 C 318.826 194.917,318.668 194.612,318.668 194.241 C 318.668 193.869,318.471 193.356,318.230 193.101 C 317.989 192.847,317.555 192.165,317.266 191.586 C 316.976 191.008,316.464 190.229,316.126 189.855 C 315.789 189.481,315.513 188.969,315.513 188.716 C 315.513 188.463,315.367 188.256,315.190 188.256 C 315.012 188.256,314.768 187.804,314.647 187.252 C 314.525 186.699,314.118 185.917,313.742 185.513 C 313.366 185.110,313.059 184.615,313.059 184.414 C 313.059 184.213,312.901 184.049,312.708 184.049 C 312.515 184.049,312.358 183.734,312.358 183.348 C 312.358 182.962,312.239 182.645,312.095 182.643 C 311.950 182.642,311.520 181.932,311.140 181.066 C 310.759 180.200,310.325 179.492,310.176 179.492 C 310.026 179.492,309.904 179.176,309.904 178.791 C 309.904 178.405,309.746 178.089,309.553 178.089 C 309.360 178.089,309.202 177.911,309.202 177.692 C 309.202 177.474,308.908 177.040,308.548 176.728 C 308.189 176.416,307.782 175.648,307.644 175.022 C 307.506 174.395,307.268 173.883,307.114 173.883 C 306.960 173.883,306.637 173.409,306.398 172.831 C 306.158 172.252,305.824 171.779,305.654 171.779 C 305.485 171.779,305.346 171.464,305.346 171.078 C 305.346 170.692,305.206 170.377,305.034 170.377 C 304.862 170.377,304.622 169.982,304.501 169.500 C 304.380 169.018,304.126 168.624,303.937 168.624 C 303.748 168.624,303.593 168.309,303.593 167.923 C 303.593 167.537,303.436 167.222,303.243 167.222 C 303.050 167.222,302.892 166.985,302.892 166.696 C 302.892 166.407,302.734 166.170,302.542 166.170 C 302.349 166.170,302.191 165.889,302.191 165.546 C 302.191 165.203,301.876 164.695,301.490 164.417 C 301.104 164.139,300.789 163.773,300.789 163.604 C 300.789 163.056,299.603 160.756,298.960 160.057 C 298.616 159.683,298.335 159.170,298.335 158.917 C 298.335 158.664,298.177 158.457,297.984 158.457 C 297.791 158.457,297.634 158.161,297.634 157.799 C 297.634 157.437,297.397 156.945,297.108 156.705 C 296.819 156.465,296.582 156.051,296.582 155.785 C 296.582 155.520,296.424 155.302,296.231 155.302 C 296.039 155.302,295.881 154.987,295.881 154.601 C 295.881 154.216,295.723 153.900,295.530 153.900 C 295.337 153.900,295.180 153.721,295.180 153.503 C 295.180 153.285,294.889 152.851,294.535 152.539 C 294.180 152.227,293.775 151.508,293.635 150.942 C 293.380 149.910,292.118 147.868,291.599 147.648 C 291.447 147.584,291.323 147.229,291.323 146.859 C 291.323 146.490,291.205 146.186,291.060 146.184 C 290.916 146.182,290.486 145.473,290.105 144.607 C 289.725 143.741,289.291 143.032,289.141 143.032 C 288.992 143.032,288.869 142.796,288.869 142.507 C 288.869 142.217,288.712 141.981,288.519 141.981 C 288.326 141.981,288.168 141.665,288.168 141.280 C 288.168 140.894,288.034 140.578,287.871 140.578 C 287.707 140.578,287.280 139.869,286.922 139.001 C 286.564 138.133,286.146 137.423,285.993 137.423 C 285.840 137.423,285.714 137.216,285.714 136.964 C 285.714 136.711,285.399 136.165,285.013 135.751 C 284.628 135.337,284.312 134.834,284.312 134.633 C 284.312 134.433,284.174 134.268,284.005 134.268 C 283.837 134.268,283.611 133.834,283.503 133.304 C 283.396 132.774,282.982 131.992,282.583 131.566 C 282.184 131.140,281.858 130.549,281.858 130.251 C 281.858 129.954,281.740 129.709,281.595 129.707 C 281.450 129.705,281.019 129.034,280.636 128.217 C 280.254 127.400,279.859 126.652,279.759 126.556 C 279.660 126.459,279.342 125.907,279.053 125.329 C 278.764 124.750,278.252 123.971,277.914 123.597 C 277.577 123.224,277.301 122.711,277.301 122.458 C 277.301 122.205,277.182 121.998,277.038 121.997 C 276.893 121.996,276.483 121.286,276.127 120.419 C 275.770 119.552,275.366 118.843,275.228 118.843 C 275.090 118.843,274.761 118.291,274.496 117.616 C 274.231 116.941,273.926 116.388,273.817 116.386 C 273.709 116.384,273.308 115.674,272.928 114.808 C 272.547 113.942,272.113 113.234,271.963 113.234 C 271.814 113.234,271.691 112.999,271.691 112.712 C 271.691 112.232,271.139 111.413,270.026 110.240 C 269.785 109.986,269.588 109.567,269.588 109.309 C 269.588 109.051,269.194 108.259,268.712 107.550 C 268.230 106.840,267.835 106.094,267.835 105.891 C 267.835 105.688,267.677 105.521,267.485 105.521 C 267.292 105.521,267.134 105.206,267.134 104.820 C 267.134 104.435,266.976 104.119,266.784 104.119 C 266.591 104.119,266.433 103.894,266.433 103.618 C 266.433 103.343,266.226 102.909,265.973 102.654 C 265.720 102.400,265.287 101.678,265.011 101.052 C 264.735 100.425,264.390 99.912,264.244 99.912 C 264.098 99.912,263.979 99.705,263.979 99.453 C 263.979 99.200,263.683 98.675,263.321 98.286 C 262.959 97.898,262.543 97.197,262.396 96.730 C 262.250 96.263,261.678 95.221,261.126 94.415 C 260.574 93.609,260.123 92.781,260.123 92.575 C 260.123 92.369,259.965 92.200,259.772 92.200 C 259.579 92.200,259.422 91.904,259.422 91.542 C 259.422 91.180,259.185 90.687,258.896 90.447 C 258.606 90.207,258.370 89.793,258.370 89.528 C 258.370 89.262,258.212 89.045,258.019 89.045 C 257.826 89.045,257.669 88.729,257.669 88.344 C 257.669 87.958,257.511 87.642,257.318 87.642 C 257.125 87.642,256.968 87.464,256.968 87.245 C 256.968 87.027,256.677 86.593,256.322 86.281 C 255.968 85.969,255.563 85.251,255.423 84.684 C 255.168 83.653,253.905 81.610,253.387 81.391 C 253.235 81.326,253.111 80.971,253.111 80.602 C 253.111 80.232,252.993 79.928,252.848 79.927 C 252.704 79.925,252.274 79.215,251.893 78.349 C 251.513 77.483,251.079 76.775,250.929 76.775 C 250.780 76.775,250.657 76.538,250.657 76.249 C 250.657 75.960,250.500 75.723,250.307 75.723 C 250.114 75.723,249.956 75.465,249.956 75.151 C 249.956 74.836,249.662 74.323,249.302 74.011 C 248.942 73.699,248.535 72.931,248.398 72.305 C 248.260 71.678,248.002 71.166,247.825 71.166 C 247.647 71.166,247.502 70.959,247.502 70.706 C 247.502 70.453,247.187 69.907,246.801 69.494 C 246.415 69.080,246.100 68.577,246.100 68.376 C 246.100 68.175,245.962 68.011,245.793 68.011 C 245.624 68.011,245.399 67.577,245.291 67.046 C 245.184 66.516,244.770 65.734,244.371 65.308 C 243.972 64.882,243.646 64.291,243.646 63.994 C 243.646 63.696,243.528 63.451,243.383 63.449 C 243.238 63.447,242.807 62.776,242.424 61.959 C 242.042 61.142,241.647 60.394,241.547 60.298 C 241.448 60.202,241.131 59.649,240.843 59.071 C 240.556 58.493,240.043 57.764,239.704 57.452 C 239.366 57.140,239.089 56.628,239.089 56.313 C 239.089 55.998,238.970 55.740,238.826 55.739 C 238.681 55.739,238.271 55.029,237.914 54.162 C 237.558 53.295,237.124 52.585,236.950 52.585 C 236.777 52.585,236.635 52.270,236.635 51.884 C 236.635 51.499,236.477 51.183,236.284 51.183 C 236.091 51.183,235.933 50.947,235.933 50.657 C 235.933 50.368,235.815 50.130,235.670 50.128 C 235.526 50.126,235.096 49.416,234.715 48.551 C 234.335 47.685,233.901 46.976,233.751 46.976 C 233.602 46.976,233.479 46.742,233.479 46.454 C 233.479 45.975,232.927 45.155,231.814 43.982 C 231.573 43.728,231.376 43.309,231.376 43.051 C 231.376 42.793,230.982 42.001,230.500 41.292 C 230.018 40.583,229.623 39.836,229.623 39.633 C 229.623 39.430,229.465 39.264,229.273 39.264 C 229.080 39.264,228.922 38.948,228.922 38.563 C 228.922 38.177,228.781 37.862,228.609 37.862 C 228.438 37.862,228.198 37.467,228.077 36.985 C 227.956 36.503,227.702 36.109,227.513 36.109 C 227.324 36.109,227.169 35.793,227.169 35.408 C 227.169 35.022,227.011 34.706,226.819 34.706 C 226.626 34.706,226.468 34.542,226.468 34.341 C 226.468 34.140,226.152 33.637,225.767 33.223 C 225.381 32.809,225.066 32.264,225.066 32.011 C 225.066 31.758,224.928 31.551,224.759 31.551 C 224.590 31.551,224.364 31.117,224.257 30.587 C 224.150 30.057,223.736 29.275,223.337 28.849 C 222.938 28.423,222.612 27.832,222.612 27.534 C 222.612 27.237,222.454 26.994,222.261 26.994 C 222.068 26.994,221.911 26.757,221.911 26.468 C 221.911 26.179,221.753 25.942,221.560 25.942 C 221.367 25.942,221.209 25.646,221.209 25.284 C 221.209 24.922,220.973 24.429,220.684 24.189 C 220.394 23.949,220.158 23.536,220.158 23.270 C 220.158 23.004,220.000 22.787,219.807 22.787 C 219.614 22.787,219.457 22.472,219.457 22.086 C 219.457 21.700,219.299 21.385,219.106 21.385 C 218.913 21.385,218.755 21.148,218.755 20.859 C 218.755 20.570,218.598 20.333,218.405 20.333 C 218.212 20.333,218.054 20.096,218.054 19.807 C 218.054 19.518,217.909 19.281,217.732 19.281 C 217.554 19.281,217.310 18.829,217.188 18.277 C 217.067 17.725,216.660 16.942,216.284 16.539 C 215.908 16.135,215.600 15.641,215.600 15.440 C 215.600 15.239,215.443 15.074,215.250 15.074 C 215.057 15.074,214.899 14.759,214.899 14.373 C 214.899 13.988,214.741 13.672,214.549 13.672 C 214.356 13.672,214.198 13.470,214.198 13.222 C 214.198 11.888,208.838 6.682,207.450 6.667 C 207.112 6.664,206.836 6.541,206.836 6.396 C 206.836 5.550,199.364 4.617,196.670 5.126 M202.020 67.849 C 202.741 69.146,203.330 70.343,203.330 70.511 C 203.330 70.678,203.470 70.815,203.640 70.815 C 203.810 70.815,204.038 71.091,204.147 71.429 C 204.384 72.167,206.302 75.532,207.225 76.829 C 207.590 77.341,207.888 77.840,207.888 77.939 C 207.888 78.038,208.598 79.320,209.465 80.787 C 210.333 82.255,211.043 83.533,211.043 83.628 C 211.043 83.723,211.446 84.438,211.938 85.218 C 212.431 85.998,213.121 87.139,213.473 87.753 C 214.650 89.808,216.731 93.416,217.353 94.479 C 219.408 97.990,220.508 100.019,220.508 100.297 C 220.508 100.471,220.627 100.615,220.771 100.616 C 220.916 100.618,221.207 100.973,221.419 101.405 C 221.631 101.837,222.399 103.216,223.127 104.470 C 224.707 107.191,225.361 108.333,226.536 110.429 C 227.876 112.820,228.677 114.201,230.454 117.188 C 231.347 118.688,232.077 120.004,232.077 120.114 C 232.077 120.223,232.370 120.731,232.728 121.243 C 233.086 121.755,233.777 122.883,234.262 123.751 C 235.145 125.328,237.227 128.954,238.387 130.938 C 238.726 131.516,239.594 133.015,240.316 134.268 C 241.038 135.521,241.905 137.020,242.244 137.599 C 243.187 139.210,245.383 143.028,246.368 144.767 C 246.854 145.624,247.702 147.091,248.253 148.025 C 248.804 148.960,249.255 149.804,249.255 149.901 C 249.255 149.998,249.807 150.941,250.482 151.996 C 251.157 153.051,251.709 153.973,251.709 154.046 C 251.709 154.119,252.315 155.181,253.056 156.406 C 253.797 157.631,254.803 159.343,255.292 160.210 C 255.780 161.078,256.752 162.789,257.450 164.013 C 258.149 165.236,258.720 166.380,258.720 166.554 C 258.720 166.729,258.839 166.872,258.983 166.874 C 259.128 166.875,259.420 167.230,259.631 167.663 C 259.843 168.095,260.612 169.474,261.340 170.727 C 262.068 171.981,263.059 173.716,263.543 174.584 C 264.027 175.451,264.550 176.323,264.704 176.520 C 264.858 176.717,265.445 177.742,266.009 178.799 C 266.573 179.855,267.789 181.981,268.712 183.523 C 269.635 185.066,270.657 186.801,270.983 187.379 C 272.789 190.583,273.482 191.801,274.671 193.865 C 275.393 195.118,276.261 196.617,276.599 197.195 C 276.938 197.774,277.806 199.273,278.528 200.526 C 279.250 201.779,280.117 203.278,280.456 203.856 C 281.375 205.428,283.582 209.263,284.548 210.967 C 285.016 211.793,286.417 214.219,287.660 216.359 C 288.904 218.498,289.921 220.287,289.921 220.334 C 289.921 220.380,290.789 221.865,291.849 223.632 C 292.910 225.400,293.777 226.934,293.777 227.041 C 293.777 227.148,294.070 227.655,294.428 228.167 C 294.786 228.679,295.474 229.807,295.956 230.675 C 296.439 231.543,297.152 232.805,297.541 233.479 C 300.167 238.030,300.976 239.444,301.755 240.841 C 302.239 241.709,302.755 242.577,302.902 242.770 C 303.048 242.962,303.523 243.751,303.956 244.522 C 304.390 245.294,305.139 246.626,305.621 247.484 C 306.103 248.341,306.971 249.840,307.548 250.814 C 308.602 252.589,309.026 253.330,310.673 256.266 C 311.160 257.134,312.031 258.641,312.609 259.615 C 313.187 260.589,314.057 262.088,314.543 262.946 C 315.528 264.685,317.725 268.502,318.668 270.114 C 319.336 271.257,321.546 275.088,322.509 276.775 C 322.840 277.353,323.547 278.615,324.081 279.579 C 324.615 280.543,325.176 281.490,325.329 281.683 C 325.481 281.876,326.043 282.822,326.577 283.786 C 328.187 286.694,328.663 287.525,330.361 290.388 C 331.257 291.899,331.989 293.215,331.989 293.314 C 331.989 293.413,332.282 293.913,332.641 294.424 C 332.999 294.936,333.686 296.065,334.169 296.933 C 335.056 298.529,335.409 299.146,337.780 303.243 C 339.754 306.655,340.048 307.233,340.050 307.713 C 340.052 308.062,311.810 308.151,200.000 308.151 C 88.190 308.151,59.948 308.062,59.950 307.713 C 59.952 307.275,60.274 306.603,61.588 304.294 C 61.972 303.620,62.683 302.358,63.169 301.490 C 63.655 300.622,64.785 298.677,65.681 297.166 C 66.577 295.656,67.309 294.276,67.309 294.099 C 67.309 293.922,67.429 293.777,67.574 293.777 C 67.720 293.777,68.060 293.265,68.331 292.638 C 68.601 292.011,69.090 291.104,69.418 290.622 C 69.746 290.140,70.411 289.036,70.897 288.168 C 71.383 287.301,72.376 285.565,73.104 284.312 C 73.832 283.059,74.601 281.680,74.812 281.247 C 75.024 280.815,75.316 280.460,75.460 280.458 C 75.605 280.457,75.723 280.313,75.723 280.139 C 75.723 279.965,76.295 278.821,76.993 277.597 C 77.692 276.374,78.663 274.663,79.152 273.795 C 79.640 272.927,80.646 271.215,81.387 269.990 C 82.128 268.766,82.734 267.720,82.734 267.666 C 82.734 267.612,83.996 265.401,85.539 262.752 C 87.082 260.103,88.344 257.797,88.344 257.627 C 88.344 257.457,88.501 257.318,88.694 257.318 C 88.887 257.318,89.045 257.176,89.045 257.001 C 89.045 256.724,90.145 254.695,92.200 251.183 C 93.040 249.747,95.288 245.844,96.136 244.347 C 96.519 243.672,96.952 242.962,97.098 242.770 C 97.245 242.577,97.758 241.709,98.238 240.841 C 99.769 238.078,100.656 236.522,102.134 234.005 C 104.782 229.498,105.198 228.750,105.401 228.133 C 105.512 227.796,105.743 227.520,105.913 227.520 C 106.083 227.520,106.223 227.367,106.223 227.179 C 106.223 226.992,106.954 225.612,107.848 224.112 C 108.742 222.612,109.951 220.517,110.536 219.457 C 111.121 218.396,111.967 216.940,112.417 216.221 C 112.866 215.502,113.234 214.752,113.234 214.556 C 113.234 214.359,113.392 214.198,113.585 214.198 C 113.777 214.198,113.935 214.055,113.935 213.881 C 113.935 213.707,114.507 212.563,115.205 211.340 C 115.904 210.116,116.875 208.405,117.364 207.537 C 117.852 206.670,118.858 204.958,119.599 203.733 C 120.340 202.508,120.947 201.436,120.947 201.350 C 120.947 201.264,121.499 200.330,122.174 199.275 C 122.848 198.220,123.401 197.286,123.401 197.199 C 123.401 197.112,124.110 195.840,124.978 194.372 C 125.846 192.904,126.556 191.559,126.556 191.382 C 126.556 191.205,126.713 191.060,126.906 191.060 C 127.099 191.060,127.257 190.918,127.257 190.744 C 127.257 190.385,129.043 187.195,132.640 181.128 C 133.536 179.618,134.268 178.301,134.268 178.202 C 134.268 178.103,134.561 177.604,134.919 177.092 C 135.277 176.580,135.987 175.412,136.497 174.496 C 138.799 170.359,139.369 169.364,140.633 167.274 C 141.374 166.049,141.981 164.976,141.981 164.890 C 141.981 164.804,142.533 163.871,143.208 162.816 C 143.883 161.761,144.435 160.835,144.435 160.758 C 144.435 160.682,145.167 159.383,146.063 157.873 C 147.752 155.024,148.478 153.767,149.976 151.096 C 151.026 149.223,151.622 148.177,153.374 145.136 C 154.096 143.883,155.000 142.305,155.383 141.630 C 155.765 140.955,156.198 140.245,156.345 140.053 C 156.491 139.860,157.026 138.953,157.534 138.037 C 159.255 134.933,160.307 133.083,161.361 131.307 C 162.330 129.675,163.623 127.399,164.561 125.679 C 164.771 125.294,165.022 124.899,165.118 124.803 C 165.215 124.706,165.466 124.312,165.676 123.926 C 167.129 121.261,168.882 118.192,170.852 114.870 C 171.748 113.360,172.480 111.980,172.480 111.803 C 172.480 111.626,172.620 111.481,172.790 111.481 C 172.960 111.481,173.188 111.205,173.297 110.868 C 173.405 110.530,173.955 109.465,174.519 108.501 C 175.947 106.060,179.395 100.053,180.455 98.160 C 180.941 97.292,181.458 96.424,181.605 96.231 C 181.751 96.039,182.184 95.329,182.567 94.654 C 183.201 93.535,184.867 90.637,186.546 87.730 C 186.908 87.103,187.538 85.999,187.945 85.276 C 188.352 84.553,189.281 82.936,190.009 81.683 C 190.737 80.429,191.650 78.834,192.040 78.137 C 193.525 75.479,193.695 75.192,193.891 75.022 C 194.001 74.926,194.193 74.610,194.316 74.321 C 194.440 74.032,195.096 72.848,195.773 71.691 C 196.450 70.535,197.588 68.533,198.302 67.243 C 199.863 64.421,200.140 64.466,202.020 67.849 " stroke="none" fill="#ec0404" fill-rule="evenodd"></path><path id="path3" d="M196.144 71.516 C 195.845 72.095,195.679 72.568,195.775 72.568 C 195.872 72.568,196.195 72.095,196.494 71.516 C 196.793 70.938,196.959 70.465,196.863 70.465 C 196.766 70.465,196.443 70.938,196.144 71.516 M194.754 73.825 C 194.427 74.324,194.239 74.812,194.337 74.910 C 194.435 75.007,194.767 74.599,195.075 74.003 C 195.757 72.685,195.569 72.581,194.754 73.825 M204.908 73.970 C 205.207 74.549,205.531 75.022,205.627 75.022 C 205.724 75.022,205.558 74.549,205.259 73.970 C 204.959 73.392,204.636 72.918,204.539 72.918 C 204.443 72.918,204.609 73.392,204.908 73.970 M208.764 80.631 C 209.063 81.209,209.387 81.683,209.483 81.683 C 209.580 81.683,209.414 81.209,209.115 80.631 C 208.816 80.053,208.492 79.579,208.396 79.579 C 208.299 79.579,208.465 80.053,208.764 80.631 M188.431 84.838 C 188.132 85.416,187.966 85.890,188.063 85.890 C 188.159 85.890,188.483 85.416,188.782 84.838 C 189.081 84.259,189.247 83.786,189.150 83.786 C 189.054 83.786,188.730 84.259,188.431 84.838 M212.796 87.642 C 213.189 88.414,213.590 89.045,213.686 89.045 C 213.783 89.045,213.540 88.414,213.146 87.642 C 212.753 86.871,212.352 86.240,212.256 86.240 C 212.159 86.240,212.402 86.871,212.796 87.642 M186.024 89.132 L 185.393 90.272 186.115 89.395 C 186.756 88.618,187.041 87.993,186.754 87.993 C 186.699 87.993,186.370 88.506,186.024 89.132 M184.183 92.287 C 182.976 94.335,182.897 94.510,183.512 93.777 C 184.224 92.929,184.838 91.849,184.608 91.849 C 184.516 91.849,184.325 92.046,184.183 92.287 M180.326 98.948 C 179.120 100.996,179.041 101.170,179.656 100.438 C 180.368 99.590,180.982 98.510,180.752 98.510 C 180.660 98.510,180.469 98.707,180.326 98.948 M226.423 111.306 C 226.612 111.691,227.024 112.323,227.338 112.708 L 227.909 113.409 227.565 112.708 C 227.375 112.323,226.964 111.691,226.650 111.306 L 226.079 110.605 226.423 111.306 M230.279 117.967 C 230.469 118.352,230.880 118.983,231.194 119.369 L 231.765 120.070 231.421 119.369 C 231.232 118.983,230.820 118.352,230.506 117.967 L 229.935 117.266 230.279 117.967 M194.040 118.370 C 188.123 120.466,184.131 124.103,182.006 129.332 C 181.232 131.236,180.530 134.839,181.214 133.392 C 181.397 133.006,181.557 132.334,181.570 131.897 C 181.584 131.461,181.727 130.830,181.889 130.495 C 182.050 130.160,182.627 128.968,183.171 127.847 C 185.625 122.785,190.954 119.054,197.003 118.163 L 198.948 117.877 197.195 117.875 C 196.231 117.874,194.812 118.097,194.040 118.370 M202.997 118.163 C 208.424 118.962,213.429 122.187,216.266 126.712 C 216.864 127.666,217.353 128.288,217.353 128.095 C 217.353 127.143,214.299 123.293,212.234 121.642 C 209.753 119.659,204.896 117.762,202.484 117.834 C 201.146 117.874,201.180 117.896,202.997 118.163 M167.397 121.297 C 167.098 121.876,166.932 122.349,167.028 122.349 C 167.125 122.349,167.448 121.876,167.748 121.297 C 168.047 120.719,168.213 120.245,168.116 120.245 C 168.020 120.245,167.696 120.719,167.397 121.297 M164.989 125.592 L 164.359 126.731 165.081 125.855 C 165.722 125.077,166.007 124.452,165.720 124.452 C 165.665 124.452,165.336 124.965,164.989 125.592 M163.587 128.046 L 162.956 129.185 163.679 128.309 C 164.320 127.531,164.604 126.906,164.317 126.906 C 164.263 126.906,163.934 127.419,163.587 128.046 M217.353 128.812 C 217.353 128.895,217.530 129.408,217.745 129.951 C 217.961 130.494,218.350 131.727,218.609 132.691 L 219.081 134.443 218.895 132.765 C 218.676 130.793,217.353 127.401,217.353 128.812 M219.252 141.104 C 219.253 144.768,219.304 146.219,219.368 144.329 C 219.431 142.439,219.430 139.442,219.367 137.668 C 219.304 135.895,219.252 137.441,219.252 141.104 M180.488 136.810 C 180.422 137.822,180.455 140.386,180.562 142.507 C 180.750 146.265,180.757 146.218,180.825 140.666 C 180.893 135.080,180.726 133.168,180.488 136.810 M241.718 137.774 C 242.017 138.352,242.341 138.826,242.437 138.826 C 242.533 138.826,242.367 138.352,242.068 137.774 C 241.769 137.195,241.446 136.722,241.349 136.722 C 241.253 136.722,241.419 137.195,241.718 137.774 M156.542 140.083 C 156.215 140.582,156.008 141.050,156.082 141.124 C 156.155 141.198,156.492 140.790,156.831 140.217 C 157.586 138.938,157.360 138.833,156.542 140.083 M243.120 140.228 C 243.419 140.806,243.743 141.280,243.839 141.280 C 243.936 141.280,243.770 140.806,243.471 140.228 C 243.172 139.649,242.848 139.176,242.751 139.176 C 242.655 139.176,242.821 139.649,243.120 140.228 M246.976 146.889 C 247.275 147.467,247.599 147.940,247.695 147.940 C 247.792 147.940,247.626 147.467,247.327 146.889 C 247.028 146.310,246.704 145.837,246.608 145.837 C 246.511 145.837,246.677 146.310,246.976 146.889 M218.652 152.323 C 218.521 154.636,218.257 158.580,218.065 161.087 C 217.451 169.129,217.269 173.012,217.516 172.775 C 217.648 172.648,217.898 170.361,218.070 167.692 C 218.819 156.067,219.145 149.636,219.023 148.903 C 218.951 148.470,218.784 150.009,218.652 152.323 M181.097 153.725 C 181.269 159.322,181.825 167.735,182.314 172.153 C 182.497 173.805,182.656 176.408,182.667 177.938 C 182.678 179.467,182.830 181.350,183.005 182.121 C 183.498 184.300,182.722 170.293,181.933 162.772 C 181.747 161.000,181.577 158.161,181.554 156.462 C 181.532 154.764,181.385 152.349,181.229 151.096 C 181.026 149.460,180.988 150.202,181.097 153.725 M150.219 151.096 C 149.920 151.674,149.754 152.147,149.851 152.147 C 149.947 152.147,150.271 151.674,150.570 151.096 C 150.869 150.517,151.035 150.044,150.938 150.044 C 150.842 150.044,150.518 150.517,150.219 151.096 M251.008 153.900 C 251.401 154.671,251.802 155.302,251.899 155.302 C 251.995 155.302,251.752 154.671,251.358 153.900 C 250.965 153.129,250.564 152.498,250.468 152.498 C 250.371 152.498,250.614 153.129,251.008 153.900 M147.811 155.390 L 147.181 156.529 147.903 155.653 C 148.544 154.876,148.829 154.251,148.542 154.251 C 148.487 154.251,148.158 154.763,147.811 155.390 M145.971 158.545 C 144.764 160.592,144.685 160.767,145.300 160.035 C 146.012 159.187,146.626 158.107,146.396 158.107 C 146.304 158.107,146.113 158.304,145.971 158.545 M142.114 165.206 C 140.908 167.253,140.829 167.428,141.444 166.696 C 142.156 165.848,142.769 164.768,142.540 164.768 C 142.448 164.768,142.256 164.965,142.114 165.206 M216.896 177.866 C 216.741 180.346,216.687 182.448,216.776 182.537 C 217.044 182.805,217.415 177.718,217.292 175.460 C 217.207 173.899,217.105 174.518,216.896 177.866 M264.154 176.687 C 264.453 177.266,264.777 177.739,264.873 177.739 C 264.970 177.739,264.804 177.266,264.505 176.687 C 264.206 176.109,263.882 175.635,263.786 175.635 C 263.689 175.635,263.855 176.109,264.154 176.687 M134.443 178.440 C 134.144 179.018,133.978 179.492,134.075 179.492 C 134.171 179.492,134.495 179.018,134.794 178.440 C 135.093 177.862,135.259 177.388,135.163 177.388 C 135.066 177.388,134.743 177.862,134.443 178.440 M216.214 186.817 C 216.069 188.051,215.969 189.786,215.992 190.674 L 216.033 192.287 216.355 190.359 C 216.532 189.299,216.632 187.564,216.577 186.503 L 216.477 184.575 216.214 186.817 M183.420 187.555 C 183.402 189.001,183.519 190.815,183.678 191.586 C 184.077 193.514,184.102 190.170,183.712 187.029 L 183.451 184.926 183.420 187.555 M129.185 187.555 C 128.886 188.133,128.720 188.606,128.816 188.606 C 128.913 188.606,129.236 188.133,129.535 187.555 C 129.835 186.976,130.000 186.503,129.904 186.503 C 129.808 186.503,129.484 186.976,129.185 187.555 M269.952 186.678 C 269.953 186.871,270.277 187.423,270.671 187.905 C 271.147 188.487,271.266 188.546,271.026 188.081 C 270.435 186.937,269.949 186.303,269.952 186.678 M271.976 190.184 C 272.368 190.955,272.947 191.902,273.264 192.287 C 273.580 192.673,273.409 192.200,272.883 191.236 C 271.706 189.078,270.996 188.255,271.976 190.184 M125.329 194.216 C 125.030 194.794,124.864 195.267,124.960 195.267 C 125.056 195.267,125.380 194.794,125.679 194.216 C 125.978 193.637,126.144 193.164,126.048 193.164 C 125.951 193.164,125.628 193.637,125.329 194.216 M215.454 197.634 C 215.157 202.416,214.589 209.829,213.986 216.786 C 213.704 220.041,213.545 222.777,213.634 222.865 C 213.823 223.055,214.025 221.466,214.516 215.951 C 215.363 206.408,216.118 194.216,215.860 194.216 C 215.753 194.216,215.570 195.754,215.454 197.634 M184.144 196.845 C 184.140 198.195,184.250 200.403,184.388 201.753 L 184.640 204.207 184.657 201.402 C 184.666 199.860,184.557 197.651,184.413 196.494 L 184.152 194.391 184.144 196.845 M279.930 204.032 C 280.229 204.610,280.553 205.083,280.649 205.083 C 280.745 205.083,280.580 204.610,280.280 204.032 C 279.981 203.453,279.658 202.980,279.561 202.980 C 279.465 202.980,279.631 203.453,279.930 204.032 M184.985 209.465 C 185.081 212.165,185.303 215.320,185.478 216.477 C 185.653 217.634,185.809 219.369,185.824 220.333 C 185.839 221.297,185.999 222.401,186.180 222.787 C 186.420 223.300,186.465 223.064,186.346 221.911 C 186.256 221.043,186.006 217.967,185.788 215.074 C 185.120 206.179,184.786 203.842,184.985 209.465 M118.330 206.341 C 118.003 206.839,117.796 207.308,117.869 207.382 C 117.943 207.455,118.280 207.047,118.618 206.475 C 119.374 205.196,119.148 205.091,118.330 206.341 M281.332 206.486 C 281.631 207.064,281.955 207.537,282.051 207.537 C 282.148 207.537,281.982 207.064,281.683 206.486 C 281.384 205.907,281.060 205.434,280.964 205.434 C 280.867 205.434,281.033 205.907,281.332 206.486 M117.224 208.326 C 116.017 210.373,115.938 210.548,116.553 209.816 C 117.265 208.968,117.879 207.888,117.649 207.888 C 117.557 207.888,117.366 208.085,117.224 208.326 M282.524 208.414 C 283.115 209.557,283.600 210.191,283.598 209.816 C 283.596 209.623,283.273 209.071,282.878 208.589 C 282.402 208.007,282.283 207.948,282.524 208.414 M289.154 219.982 C 289.546 220.754,290.125 221.700,290.442 222.086 C 290.758 222.472,290.587 221.998,290.061 221.034 C 288.884 218.877,288.174 218.054,289.154 219.982 M186.508 224.920 C 186.511 225.675,186.676 226.529,186.873 226.819 C 187.129 227.192,187.165 226.836,186.998 225.592 C 186.706 223.403,186.501 223.124,186.508 224.920 M212.988 225.352 C 212.844 226.185,212.811 226.950,212.914 227.053 C 213.169 227.309,213.608 224.867,213.409 224.296 C 213.321 224.044,213.132 224.520,212.988 225.352 M293.010 226.643 C 293.402 227.415,293.981 228.361,294.298 228.747 C 294.614 229.132,294.443 228.659,293.917 227.695 C 292.740 225.537,292.031 224.715,293.010 226.643 M105.743 228.309 L 105.112 229.448 105.835 228.571 C 106.476 227.794,106.760 227.169,106.473 227.169 C 106.419 227.169,106.090 227.682,105.743 228.309 M187.264 228.221 C 187.258 228.703,187.389 229.413,187.555 229.798 L 187.856 230.500 187.846 229.798 C 187.840 229.413,187.709 228.703,187.555 228.221 L 187.274 227.344 187.264 228.221 M212.134 229.097 C 211.892 230.061,211.611 231.261,211.511 231.763 C 210.726 235.699,207.180 239.377,203.415 240.160 C 195.916 241.718,190.073 238.373,188.461 231.598 C 188.329 231.045,188.132 230.682,188.022 230.792 C 187.320 231.494,190.196 236.896,192.144 238.535 C 196.222 241.967,205.282 241.495,208.737 237.670 C 210.530 235.686,213.054 229.495,212.707 227.935 C 212.634 227.610,212.377 228.133,212.134 229.097 M100.263 237.686 C 99.869 238.457,99.626 239.089,99.723 239.089 C 99.819 239.089,100.220 238.457,100.613 237.686 C 101.007 236.915,101.250 236.284,101.154 236.284 C 101.057 236.284,100.656 236.915,100.263 237.686 M93.439 249.461 C 93.112 249.960,92.905 250.428,92.979 250.502 C 93.053 250.575,93.390 250.167,93.728 249.595 C 94.484 248.316,94.258 248.211,93.439 249.461 M306.223 249.606 C 306.522 250.184,306.845 250.657,306.942 250.657 C 307.038 250.657,306.872 250.184,306.573 249.606 C 306.274 249.027,305.950 248.554,305.854 248.554 C 305.758 248.554,305.923 249.027,306.223 249.606 M308.677 253.812 C 308.976 254.391,309.299 254.864,309.396 254.864 C 309.492 254.864,309.326 254.391,309.027 253.812 C 308.728 253.234,308.404 252.761,308.308 252.761 C 308.212 252.761,308.377 253.234,308.677 253.812 M195.739 255.132 C 195.516 255.274,197.443 255.390,200.020 255.390 C 202.598 255.390,204.436 255.283,204.106 255.152 C 203.289 254.827,196.244 254.811,195.739 255.132 M310.079 256.266 C 310.378 256.845,310.702 257.318,310.798 257.318 C 310.894 257.318,310.729 256.845,310.429 256.266 C 310.130 255.688,309.807 255.215,309.710 255.215 C 309.614 255.215,309.780 255.688,310.079 256.266 M191.676 256.557 C 190.569 257.072,189.662 257.615,189.660 257.763 C 189.659 257.912,190.320 257.696,191.129 257.283 C 191.938 256.871,193.160 256.326,193.846 256.074 C 194.592 255.799,194.810 255.616,194.391 255.617 C 194.005 255.619,192.784 256.042,191.676 256.557 M205.784 255.934 C 210.095 257.818,211.379 258.658,214.023 261.324 C 215.669 262.985,216.400 263.574,215.791 262.751 C 214.468 260.961,211.872 258.520,210.517 257.792 C 207.982 256.430,206.899 255.948,205.936 255.756 C 204.935 255.556,204.931 255.561,205.784 255.934 M185.988 260.694 C 184.536 262.165,183.349 263.546,183.350 263.762 C 183.351 263.978,183.989 263.412,184.767 262.504 C 185.545 261.596,186.925 260.217,187.832 259.439 C 188.740 258.660,189.291 258.023,189.056 258.022 C 188.821 258.020,187.441 259.223,185.988 260.694 M182.568 265.118 C 181.844 266.240,180.756 269.216,180.987 269.447 C 181.093 269.554,181.286 269.274,181.416 268.826 C 181.650 268.014,182.454 266.112,183.056 264.943 C 183.510 264.064,183.171 264.185,182.568 265.118 M216.944 264.943 C 218.855 268.651,219.268 270.449,219.255 275.022 C 219.248 277.336,219.354 278.834,219.490 278.352 C 220.466 274.893,218.446 264.330,216.809 264.330 C 216.709 264.330,216.770 264.606,216.944 264.943 M83.217 267.222 C 82.895 267.848,82.401 268.755,82.120 269.238 C 81.630 270.078,81.633 270.085,82.199 269.413 C 82.890 268.592,84.230 266.082,83.978 266.082 C 83.882 266.082,83.540 266.595,83.217 267.222 M317.476 269.062 C 318.002 270.026,318.582 270.973,318.764 271.166 C 319.284 271.715,317.739 268.795,317.096 268.011 C 316.779 267.625,316.951 268.098,317.476 269.062 M180.414 271.078 C 180.129 272.142,180.182 277.673,180.484 278.437 C 180.617 278.773,180.724 277.077,180.722 274.669 C 180.718 269.899,180.721 269.931,180.414 271.078 M79.012 274.584 C 77.805 276.631,77.726 276.806,78.341 276.074 C 79.053 275.225,79.667 274.145,79.437 274.145 C 79.345 274.145,79.154 274.343,79.012 274.584 M320.736 274.671 C 321.327 275.815,321.812 276.449,321.810 276.074 C 321.808 275.881,321.485 275.329,321.090 274.847 C 320.614 274.265,320.495 274.206,320.736 274.671 M180.922 279.970 C 180.817 282.764,189.252 293.249,190.555 291.945 C 190.655 291.846,189.981 291.279,189.058 290.686 C 185.752 288.562,182.675 284.436,181.298 280.280 C 181.027 279.465,180.943 279.395,180.922 279.970 M218.542 280.368 C 218.018 282.593,215.742 286.303,213.638 288.362 C 207.718 294.156,199.966 295.504,191.586 292.198 C 191.110 292.010,190.998 292.036,191.236 292.280 C 194.726 295.853,205.950 294.801,211.919 290.343 C 215.426 287.724,220.785 279.404,218.965 279.404 C 218.857 279.404,218.667 279.838,218.542 280.368 M325.855 283.611 C 326.154 284.189,326.477 284.663,326.574 284.663 C 326.670 284.663,326.504 284.189,326.205 283.611 C 325.906 283.032,325.582 282.559,325.486 282.559 C 325.390 282.559,325.555 283.032,325.855 283.611 M331.652 293.602 C 331.653 293.795,331.977 294.347,332.371 294.829 C 332.848 295.411,332.967 295.470,332.726 295.004 C 332.135 293.861,331.649 293.227,331.652 293.602 M66.082 296.933 C 65.783 297.511,65.617 297.984,65.714 297.984 C 65.810 297.984,66.134 297.511,66.433 296.933 C 66.732 296.354,66.898 295.881,66.802 295.881 C 66.705 295.881,66.382 296.354,66.082 296.933 M61.221 305.434 L 60.590 306.573 61.313 305.697 C 61.954 304.919,62.238 304.294,61.951 304.294 C 61.896 304.294,61.568 304.807,61.221 305.434 M338.934 306.223 C 339.112 306.608,339.344 307.160,339.452 307.450 C 339.620 307.904,339.650 307.901,339.674 307.429 C 339.690 307.128,339.457 306.576,339.157 306.202 C 338.620 305.532,338.617 305.533,338.934 306.223 " stroke="none" fill="#dd8484" fill-rule="evenodd"></path><path id="path4" d="M198.466 66.983 C 197.838 68.126,197.403 69.062,197.500 69.062 C 197.598 69.062,198.107 68.273,198.632 67.309 C 199.156 66.345,199.772 65.557,200.000 65.557 C 200.228 65.557,200.844 66.345,201.368 67.309 C 201.893 68.273,202.401 69.062,202.498 69.062 C 202.863 69.062,200.712 65.493,200.174 65.205 C 199.724 64.965,199.378 65.325,198.466 66.983 M196.507 70.320 C 196.180 70.818,195.973 71.287,196.047 71.361 C 196.120 71.434,196.457 71.026,196.795 70.454 C 197.551 69.175,197.325 69.070,196.507 70.320 M192.650 76.980 C 192.324 77.479,192.116 77.948,192.190 78.021 C 192.264 78.095,192.601 77.687,192.939 77.115 C 193.695 75.836,193.469 75.731,192.650 76.980 M206.999 77.038 C 207.305 77.664,207.630 78.177,207.722 78.177 C 208.070 78.177,207.846 77.619,207.158 76.775 L 206.443 75.898 206.999 77.038 M190.184 81.332 C 189.885 81.911,189.719 82.384,189.815 82.384 C 189.912 82.384,190.235 81.911,190.535 81.332 C 190.834 80.754,191.000 80.280,190.903 80.280 C 190.807 80.280,190.483 80.754,190.184 81.332 M209.465 81.332 C 209.765 81.911,210.088 82.384,210.185 82.384 C 210.281 82.384,210.115 81.911,209.816 81.332 C 209.517 80.754,209.193 80.280,209.097 80.280 C 209.000 80.280,209.166 80.754,209.465 81.332 M214.409 89.921 C 214.935 90.885,215.514 91.832,215.697 92.025 C 216.216 92.574,214.672 89.654,214.028 88.869 C 213.712 88.484,213.883 88.957,214.409 89.921 M181.254 96.795 C 180.648 97.780,180.229 98.663,180.322 98.756 C 180.415 98.849,180.763 98.398,181.095 97.754 C 181.427 97.109,181.930 96.227,182.213 95.793 C 182.496 95.359,182.644 95.004,182.542 95.004 C 182.440 95.004,181.860 95.810,181.254 96.795 M218.265 96.582 C 218.791 97.546,219.371 98.493,219.553 98.685 C 220.072 99.235,218.528 96.315,217.884 95.530 C 217.568 95.145,217.739 95.618,218.265 96.582 M178.572 101.402 C 178.250 102.029,177.756 102.936,177.475 103.418 C 176.985 104.259,176.988 104.266,177.554 103.593 C 178.245 102.772,179.585 100.263,179.333 100.263 C 179.237 100.263,178.895 100.776,178.572 101.402 M222.122 103.243 C 222.647 104.207,223.227 105.153,223.409 105.346 C 223.929 105.896,222.384 102.976,221.741 102.191 C 221.424 101.805,221.596 102.279,222.122 103.243 M175.472 106.779 C 175.146 107.278,174.939 107.746,175.012 107.820 C 175.086 107.894,175.423 107.485,175.761 106.913 C 176.517 105.634,176.291 105.529,175.472 106.779 M224.299 107.099 C 224.690 107.870,225.269 108.817,225.584 109.202 C 225.899 109.588,225.739 109.115,225.228 108.151 C 224.718 107.187,224.139 106.240,223.943 106.047 C 223.747 105.855,223.907 106.328,224.299 107.099 M170.552 115.337 C 170.253 115.916,170.087 116.389,170.184 116.389 C 170.280 116.389,170.604 115.916,170.903 115.337 C 171.202 114.759,171.368 114.286,171.271 114.286 C 171.175 114.286,170.851 114.759,170.552 115.337 M169.162 117.647 C 168.835 118.145,168.648 118.633,168.745 118.731 C 168.843 118.828,169.175 118.420,169.484 117.824 C 170.165 116.506,169.978 116.402,169.162 117.647 M229.982 117.003 C 229.986 117.147,230.311 117.660,230.704 118.142 L 231.418 119.018 230.862 117.879 C 230.334 116.796,229.964 116.429,229.982 117.003 M167.760 120.101 C 167.433 120.599,167.226 121.068,167.300 121.141 C 167.374 121.215,167.711 120.807,168.049 120.235 C 168.804 118.956,168.579 118.851,167.760 120.101 M232.383 121.122 C 232.572 121.507,232.984 122.138,233.298 122.524 L 233.869 123.225 233.524 122.524 C 233.335 122.138,232.923 121.507,232.609 121.122 L 232.038 120.421 232.383 121.122 M235.443 126.380 C 235.969 127.344,236.549 128.291,236.731 128.484 C 237.250 129.033,235.706 126.113,235.062 125.329 C 234.746 124.943,234.917 125.416,235.443 126.380 M163.736 127.126 C 163.324 127.825,163.044 128.454,163.114 128.524 C 163.184 128.594,163.594 128.022,164.027 127.253 C 165.008 125.506,164.757 125.396,163.736 127.126 M237.499 129.974 C 237.805 130.600,238.130 131.113,238.221 131.113 C 238.570 131.113,238.345 130.555,237.657 129.711 L 236.943 128.834 237.499 129.974 M161.394 131.201 C 161.072 131.827,160.578 132.734,160.297 133.216 C 159.807 134.057,159.810 134.064,160.376 133.392 C 161.067 132.571,162.407 130.061,162.155 130.061 C 162.059 130.061,161.717 130.574,161.394 131.201 M238.693 131.989 C 238.882 132.375,239.294 133.006,239.608 133.392 L 240.179 134.093 239.835 133.392 C 239.645 133.006,239.234 132.375,238.920 131.989 L 238.349 131.288 238.693 131.989 M158.295 136.577 C 157.968 137.076,157.761 137.544,157.834 137.618 C 157.908 137.692,158.245 137.284,158.583 136.711 C 159.339 135.432,159.113 135.328,158.295 136.577 M241.157 136.196 C 241.748 137.340,242.233 137.974,242.230 137.599 C 242.229 137.406,241.905 136.854,241.511 136.372 C 241.035 135.789,240.916 135.731,241.157 136.196 M243.156 139.702 C 243.682 140.666,244.261 141.613,244.443 141.805 C 244.963 142.355,243.419 139.435,242.775 138.650 C 242.458 138.265,242.630 138.738,243.156 139.702 M154.518 143.120 C 153.763 144.278,152.714 146.420,153.101 146.012 C 153.559 145.530,155.367 142.331,155.182 142.331 C 155.100 142.331,154.801 142.686,154.518 143.120 M245.211 143.295 C 245.517 143.922,245.842 144.435,245.934 144.435 C 246.282 144.435,246.058 143.876,245.370 143.032 L 244.655 142.156 245.211 143.295 M151.984 147.445 C 151.657 147.944,151.470 148.432,151.568 148.529 C 151.665 148.627,151.997 148.219,152.306 147.622 C 152.987 146.304,152.800 146.201,151.984 147.445 M247.677 147.590 C 247.977 148.168,248.300 148.642,248.397 148.642 C 248.493 148.642,248.327 148.168,248.028 147.590 C 247.729 147.011,247.405 146.538,247.309 146.538 C 247.212 146.538,247.378 147.011,247.677 147.590 M252.665 156.206 C 253.200 157.184,253.917 158.368,254.259 158.835 C 254.601 159.302,254.443 158.884,253.908 157.905 C 253.374 156.926,252.656 155.743,252.314 155.276 C 251.972 154.808,252.130 155.227,252.665 156.206 M145.708 158.545 L 145.077 159.684 145.800 158.808 C 146.441 158.031,146.725 157.406,146.438 157.406 C 146.384 157.406,146.055 157.918,145.708 158.545 M143.867 161.700 C 142.661 163.748,142.582 163.922,143.196 163.190 C 143.908 162.342,144.522 161.262,144.292 161.262 C 144.201 161.262,144.009 161.459,143.867 161.700 M256.477 162.840 C 257.003 163.804,257.583 164.750,257.765 164.943 C 258.284 165.493,256.740 162.572,256.097 161.788 C 255.780 161.402,255.951 161.876,256.477 162.840 M140.360 167.660 C 140.037 168.287,139.543 169.194,139.262 169.676 C 138.772 170.516,138.776 170.524,139.342 169.851 C 140.033 169.030,141.373 166.521,141.120 166.521 C 141.025 166.521,140.683 167.033,140.360 167.660 M260.334 169.500 C 260.860 170.465,261.439 171.411,261.621 171.604 C 262.141 172.153,260.597 169.233,259.953 168.449 C 259.636 168.063,259.808 168.536,260.334 169.500 M137.260 173.037 C 136.934 173.535,136.726 174.004,136.800 174.077 C 136.874 174.151,137.211 173.743,137.549 173.171 C 138.305 171.892,138.079 171.787,137.260 173.037 M262.389 173.094 C 262.695 173.720,263.020 174.233,263.112 174.233 C 263.460 174.233,263.236 173.675,262.548 172.831 L 261.833 171.954 262.389 173.094 M134.806 177.243 C 134.480 177.742,134.272 178.211,134.346 178.284 C 134.420 178.358,134.757 177.950,135.095 177.377 C 135.851 176.098,135.625 175.994,134.806 177.243 M264.843 177.301 C 265.149 177.927,265.474 178.440,265.566 178.440 C 265.914 178.440,265.690 177.882,265.002 177.038 L 264.287 176.161 264.843 177.301 M132.340 181.595 C 132.041 182.174,131.875 182.647,131.971 182.647 C 132.068 182.647,132.391 182.174,132.691 181.595 C 132.990 181.017,133.156 180.543,133.059 180.543 C 132.963 180.543,132.639 181.017,132.340 181.595 M130.950 183.904 C 130.623 184.403,130.436 184.891,130.533 184.988 C 130.631 185.086,130.963 184.678,131.271 184.082 C 131.953 182.763,131.765 182.660,130.950 183.904 M268.194 183.260 C 268.198 183.405,268.523 183.918,268.916 184.400 L 269.630 185.276 269.074 184.137 C 268.546 183.054,268.177 182.686,268.194 183.260 M129.628 186.240 C 128.873 187.398,127.823 189.540,128.211 189.132 C 128.669 188.650,130.477 185.451,130.292 185.451 C 130.209 185.451,129.911 185.806,129.628 186.240 M270.102 186.415 C 270.408 187.042,270.733 187.555,270.824 187.555 C 271.173 187.555,270.948 186.996,270.260 186.152 L 269.546 185.276 270.102 186.415 M124.628 194.917 C 124.328 195.495,124.163 195.968,124.259 195.968 C 124.355 195.968,124.679 195.495,124.978 194.917 C 125.277 194.338,125.443 193.865,125.347 193.865 C 125.250 193.865,124.927 194.338,124.628 194.917 M275.512 195.793 C 276.103 196.937,276.589 197.571,276.586 197.195 C 276.585 197.003,276.261 196.450,275.867 195.968 C 275.391 195.386,275.272 195.327,275.512 195.793 M122.833 198.160 C 121.626 200.207,121.548 200.382,122.162 199.649 C 122.874 198.801,123.488 197.721,123.258 197.721 C 123.166 197.721,122.975 197.918,122.833 198.160 M276.905 198.247 C 277.094 198.633,277.506 199.264,277.820 199.649 L 278.391 200.351 278.047 199.649 C 277.857 199.264,277.446 198.633,277.132 198.247 L 276.561 197.546 276.905 198.247 M119.978 203.067 C 118.508 205.545,117.760 206.999,118.385 206.162 C 119.223 205.037,121.002 201.928,120.807 201.928 C 120.722 201.928,120.349 202.441,119.978 203.067 M279.369 202.454 C 279.960 203.597,280.445 204.231,280.443 203.856 C 280.441 203.663,280.118 203.111,279.723 202.629 C 279.247 202.047,279.128 201.988,279.369 202.454 M281.368 205.960 C 281.894 206.924,282.473 207.870,282.655 208.063 C 283.175 208.613,281.631 205.693,280.987 204.908 C 280.671 204.522,280.842 204.996,281.368 205.960 M115.337 211.043 C 114.944 211.814,114.701 212.445,114.797 212.445 C 114.894 212.445,115.295 211.814,115.688 211.043 C 116.081 210.272,116.325 209.641,116.228 209.641 C 116.132 209.641,115.731 210.272,115.337 211.043 M285.890 213.848 C 286.189 214.426,286.512 214.899,286.609 214.899 C 286.705 214.899,286.539 214.426,286.240 213.848 C 285.941 213.269,285.617 212.796,285.521 212.796 C 285.425 212.796,285.590 213.269,285.890 213.848 M287.292 216.301 C 287.591 216.880,287.915 217.353,288.011 217.353 C 288.107 217.353,287.942 216.880,287.642 216.301 C 287.343 215.723,287.020 215.250,286.923 215.250 C 286.827 215.250,286.993 215.723,287.292 216.301 M111.306 218.054 C 111.007 218.633,110.841 219.106,110.937 219.106 C 111.034 219.106,111.357 218.633,111.656 218.054 C 111.956 217.476,112.121 217.003,112.025 217.003 C 111.929 217.003,111.605 217.476,111.306 218.054 M107.438 224.803 L 106.882 225.942 107.596 225.066 C 108.284 224.222,108.508 223.663,108.160 223.663 C 108.068 223.663,107.743 224.176,107.438 224.803 M291.687 223.839 C 291.688 224.032,292.012 224.584,292.406 225.066 C 292.883 225.648,293.002 225.707,292.761 225.241 C 292.170 224.098,291.685 223.464,291.687 223.839 M102.148 233.918 C 101.825 234.544,101.331 235.451,101.050 235.933 C 100.560 236.774,100.564 236.781,101.130 236.109 C 101.821 235.288,103.161 232.778,102.908 232.778 C 102.813 232.778,102.471 233.291,102.148 233.918 M298.546 235.758 C 299.072 236.722,299.651 237.669,299.833 237.862 C 300.353 238.411,298.809 235.491,298.165 234.706 C 297.848 234.321,298.020 234.794,298.546 235.758 M99.048 239.294 C 98.721 239.793,98.514 240.261,98.588 240.335 C 98.662 240.409,98.999 240.001,99.337 239.428 C 100.093 238.149,99.867 238.045,99.048 239.294 M300.601 239.351 C 300.907 239.978,301.232 240.491,301.324 240.491 C 301.672 240.491,301.448 239.932,300.760 239.089 L 300.045 238.212 300.601 239.351 M96.594 243.501 C 96.267 244.000,96.060 244.468,96.134 244.542 C 96.208 244.616,96.545 244.208,96.883 243.635 C 97.639 242.356,97.413 242.251,96.594 243.501 M303.055 243.558 C 303.361 244.185,303.686 244.698,303.778 244.698 C 304.126 244.698,303.902 244.139,303.214 243.295 L 302.499 242.419 303.055 243.558 M95.489 245.486 C 94.282 247.534,94.203 247.709,94.818 246.976 C 95.530 246.128,96.144 245.048,95.914 245.048 C 95.822 245.048,95.631 245.245,95.489 245.486 M304.458 246.012 C 304.763 246.639,305.088 247.152,305.180 247.152 C 305.529 247.152,305.304 246.593,304.616 245.749 L 303.902 244.873 304.458 246.012 M306.924 250.307 C 307.223 250.885,307.546 251.358,307.643 251.358 C 307.739 251.358,307.573 250.885,307.274 250.307 C 306.975 249.728,306.652 249.255,306.555 249.255 C 306.459 249.255,306.625 249.728,306.924 250.307 M91.416 252.498 C 90.661 253.656,89.611 255.798,89.999 255.390 C 90.457 254.908,92.265 251.709,92.080 251.709 C 91.997 251.709,91.699 252.064,91.416 252.498 M308.115 252.235 C 308.706 253.378,309.192 254.012,309.189 253.637 C 309.188 253.444,308.864 252.892,308.470 252.410 C 307.994 251.828,307.875 251.769,308.115 252.235 M86.415 261.174 C 86.116 261.753,85.950 262.226,86.047 262.226 C 86.143 262.226,86.467 261.753,86.766 261.174 C 87.065 260.596,87.231 260.123,87.135 260.123 C 87.038 260.123,86.715 260.596,86.415 261.174 M312.721 260.298 C 312.723 260.491,313.046 261.043,313.441 261.525 C 313.917 262.107,314.036 262.166,313.795 261.700 C 313.204 260.557,312.719 259.923,312.721 260.298 M84.970 263.716 C 84.647 264.343,84.153 265.250,83.872 265.732 C 83.382 266.573,83.386 266.580,83.952 265.907 C 84.643 265.086,85.983 262.577,85.730 262.577 C 85.635 262.577,85.293 263.089,84.970 263.716 M315.117 264.505 C 315.306 264.890,315.718 265.521,316.032 265.907 L 316.603 266.608 316.259 265.907 C 316.070 265.521,315.658 264.890,315.344 264.505 L 314.773 263.804 315.117 264.505 M81.114 270.377 C 80.791 271.004,80.297 271.911,80.016 272.393 C 79.526 273.233,79.529 273.241,80.096 272.568 C 80.787 271.747,82.127 269.238,81.874 269.238 C 81.779 269.238,81.437 269.750,81.114 270.377 M319.580 272.217 C 320.106 273.181,320.685 274.128,320.868 274.321 C 321.387 274.870,319.843 271.950,319.199 271.166 C 318.883 270.780,319.054 271.253,319.580 272.217 M77.125 277.301 C 76.732 278.072,76.489 278.703,76.585 278.703 C 76.682 278.703,77.082 278.072,77.476 277.301 C 77.869 276.529,78.112 275.898,78.016 275.898 C 77.920 275.898,77.519 276.529,77.125 277.301 M74.238 282.296 C 73.483 283.454,72.433 285.596,72.821 285.188 C 73.279 284.706,75.087 281.507,74.902 281.507 C 74.819 281.507,74.521 281.862,74.238 282.296 M325.293 282.033 C 325.884 283.177,326.370 283.811,326.367 283.436 C 326.366 283.243,326.042 282.691,325.648 282.209 C 325.172 281.626,325.053 281.568,325.293 282.033 M71.704 286.621 C 71.377 287.120,71.189 287.608,71.287 287.705 C 71.385 287.803,71.717 287.395,72.025 286.799 C 72.707 285.480,72.519 285.377,71.704 286.621 M69.257 290.817 C 68.926 291.322,68.726 291.805,68.811 291.891 C 68.897 291.976,69.238 291.633,69.569 291.129 C 69.899 290.624,70.100 290.141,70.014 290.055 C 69.928 289.969,69.588 290.312,69.257 290.817 M329.899 290.096 C 329.901 290.289,330.224 290.841,330.619 291.323 C 331.095 291.906,331.214 291.964,330.973 291.499 C 330.382 290.355,329.897 289.721,329.899 290.096 M65.381 297.634 C 65.082 298.212,64.916 298.685,65.013 298.685 C 65.109 298.685,65.433 298.212,65.732 297.634 C 66.031 297.055,66.197 296.582,66.100 296.582 C 66.004 296.582,65.680 297.055,65.381 297.634 M64.388 299.299 C 63.516 300.749,62.393 302.992,62.676 302.717 C 63.145 302.263,64.929 299.036,64.712 299.036 C 64.621 299.036,64.475 299.154,64.388 299.299 M336.758 302.016 C 337.284 302.980,337.863 303.926,338.045 304.119 C 338.565 304.669,337.021 301.749,336.377 300.964 C 336.061 300.578,336.232 301.052,336.758 302.016 M338.615 305.171 C 339.206 306.314,339.691 306.948,339.689 306.573 C 339.688 306.380,339.364 305.828,338.970 305.346 C 338.493 304.764,338.374 304.705,338.615 305.171 M339.702 307.449 C 339.702 307.682,292.638 307.829,199.737 307.888 L 59.772 307.976 199.912 308.064 C 324.286 308.141,340.053 308.092,340.053 307.625 C 340.053 307.336,339.974 307.099,339.877 307.099 C 339.781 307.099,339.702 307.257,339.702 307.449 " stroke="none" fill="#f45a5a" fill-rule="evenodd"></path></g></svg>