<svg xmlns="http://www.w3.org/2000/svg" viewBox="0 0 21.5 21.5"><defs><style>.cls-1{fill:#00a650;}.cls-2{fill:none;stroke:#00a650;stroke-linecap:round;stroke-linejoin:round;stroke-width:0.52px;}</style></defs><title>twiter</title><g id="Layer_2" data-name="Layer 2"><g id="Layer_1-2" data-name="Layer 1"><path class="cls-1" d="M15.38,8.38v.31A6.79,6.79,0,0,1,4.93,14.41a5.49,5.49,0,0,0,.58,0,4.8,4.8,0,0,0,3-1,2.38,2.38,0,0,1-2.23-1.66,2.22,2.22,0,0,0,.45,0,2.65,2.65,0,0,0,.63-.08A2.38,2.38,0,0,1,5.4,9.38v0a2.33,2.33,0,0,0,1.08.3,2.4,2.4,0,0,1-.74-3.19A6.81,6.81,0,0,0,10.66,9a3.31,3.31,0,0,1-.06-.55A2.4,2.4,0,0,1,13,6a2.35,2.35,0,0,1,1.74.76,5,5,0,0,0,1.52-.58A2.42,2.42,0,0,1,15.2,7.52a5.13,5.13,0,0,0,1.37-.37,5.15,5.15,0,0,1-1.19,1.23Z"/><circle class="cls-2" cx="10.75" cy="10.75" r="10.49"/></g></g></svg>