<svg xmlns="http://www.w3.org/2000/svg" viewBox="0 0 16.3 18.63"><defs><style>.cls-1{fill:none;stroke:gray;stroke-miterlimit:10;stroke-width:0.78px;}</style></defs><title>Asset 2</title><g id="Layer_2" data-name="Layer 2"><g id="Layer_1-2" data-name="Layer 1"><g id="user"><path class="cls-1" d="M8.15,8.15h0a3.1,3.1,0,0,1-3.1-3.1V3.49A3.1,3.1,0,0,1,8.15.39h0a3.1,3.1,0,0,1,3.11,3.1V5.05A3.1,3.1,0,0,1,8.15,8.15Z"/><path class="cls-1" d="M5.17,10.48a.55.55,0,0,1,.45.25,3.11,3.11,0,0,0,5.06,0,.55.55,0,0,1,.45-.25h0a4.78,4.78,0,0,1,4.78,4.78v2.18a.79.79,0,0,1-.8.8H1.19a.8.8,0,0,1-.8-.8V15.26a4.78,4.78,0,0,1,4.78-4.78Z"/></g></g></g></svg>